<?xml version="1.0" encoding="utf-8" standalone="no"?>
<!DOCTYPE svg PUBLIC "-//W3C//DTD SVG 1.1//EN"
  "http://www.w3.org/Graphics/SVG/1.1/DTD/svg11.dtd">
<svg xmlns:xlink="http://www.w3.org/1999/xlink" width="460.8pt" height="345.6pt" viewBox="0 0 460.8 345.6" xmlns="http://www.w3.org/2000/svg" version="1.1">
 <metadata>
  <rdf:RDF xmlns:dc="http://purl.org/dc/elements/1.1/" xmlns:cc="http://creativecommons.org/ns#" xmlns:rdf="http://www.w3.org/1999/02/22-rdf-syntax-ns#">
   <cc:Work>
    <dc:type rdf:resource="http://purl.org/dc/dcmitype/StillImage"/>
    <dc:date>2024-04-15T14:44:06.343102</dc:date>
    <dc:format>image/svg+xml</dc:format>
    <dc:creator>
     <cc:Agent>
      <dc:title>Matplotlib v3.7.3, https://matplotlib.org/</dc:title>
     </cc:Agent>
    </dc:creator>
   </cc:Work>
  </rdf:RDF>
 </metadata>
 <defs>
  <style type="text/css">*{stroke-linejoin: round; stroke-linecap: butt}</style>
 </defs>
 <g id="figure_1">
  <g id="patch_1">
   <path d="M 0 345.6 
L 460.8 345.6 
L 460.8 0 
L 0 0 
z
" style="fill: #ffffff"/>
  </g>
  <g id="axes_1">
   <g id="patch_2">
    <path d="M 57.6 119.740235 
L 414.72 119.740235 
L 414.72 41.472 
L 57.6 41.472 
z
" style="fill: #ffffff"/>
   </g>
   <g id="patch_3">
    <path d="M 57.6 51.255529 
L 147.107755 51.255529 
L 147.107755 70.822588 
L 57.6 70.822588 
z
" clip-path="url(#p08b8d5c79a)" style="fill: #9cc9bc"/>
   </g>
   <g id="patch_4">
    <path d="M 57.6 90.389647 
L 355.275918 90.389647 
L 355.275918 109.956706 
L 57.6 109.956706 
z
" clip-path="url(#p08b8d5c79a)" style="fill: #7db7ba"/>
   </g>
   <g id="matplotlib.axis_1">
    <g id="ytick_1">
     <g id="line2d_1">
      <defs>
       <path id="mdb28f47eb3" d="M 0 0 
L -3.5 0 
" style="stroke: #000000; stroke-width: 0.8"/>
      </defs>
      <g>
       <use xlink:href="#mdb28f47eb3" x="57.6" y="61.039059" style="stroke: #000000; stroke-width: 0.8"/>
      </g>
     </g>
     <g id="text_1">
      <!-- NO -->
      <g transform="translate(33.729687 64.838278) scale(0.1 -0.1)">
       <defs>
        <path id="DejaVuSans-Bold-4e" d="M 588 4666 
L 1931 4666 
L 3628 1466 
L 3628 4666 
L 4769 4666 
L 4769 0 
L 3425 0 
L 1728 3200 
L 1728 0 
L 588 0 
L 588 4666 
z
" transform="scale(0.015625)"/>
        <path id="DejaVuSans-Bold-4f" d="M 2719 3878 
Q 2169 3878 1866 3472 
Q 1563 3066 1563 2328 
Q 1563 1594 1866 1187 
Q 2169 781 2719 781 
Q 3272 781 3575 1187 
Q 3878 1594 3878 2328 
Q 3878 3066 3575 3472 
Q 3272 3878 2719 3878 
z
M 2719 4750 
Q 3844 4750 4481 4106 
Q 5119 3463 5119 2328 
Q 5119 1197 4481 553 
Q 3844 -91 2719 -91 
Q 1597 -91 958 553 
Q 319 1197 319 2328 
Q 319 3463 958 4106 
Q 1597 4750 2719 4750 
z
" transform="scale(0.015625)"/>
       </defs>
       <use xlink:href="#DejaVuSans-Bold-4e"/>
       <use xlink:href="#DejaVuSans-Bold-4f" x="83.691406"/>
      </g>
     </g>
    </g>
    <g id="ytick_2">
     <g id="line2d_2">
      <g>
       <use xlink:href="#mdb28f47eb3" x="57.6" y="100.173176" style="stroke: #000000; stroke-width: 0.8"/>
      </g>
     </g>
     <g id="text_2">
      <!-- YES -->
      <g transform="translate(29.326563 103.972395) scale(0.1 -0.1)">
       <defs>
        <path id="DejaVuSans-Bold-59" d="M -63 4666 
L 1253 4666 
L 2316 3003 
L 3378 4666 
L 4697 4666 
L 2919 1966 
L 2919 0 
L 1716 0 
L 1716 1966 
L -63 4666 
z
" transform="scale(0.015625)"/>
        <path id="DejaVuSans-Bold-45" d="M 588 4666 
L 3834 4666 
L 3834 3756 
L 1791 3756 
L 1791 2888 
L 3713 2888 
L 3713 1978 
L 1791 1978 
L 1791 909 
L 3903 909 
L 3903 0 
L 588 0 
L 588 4666 
z
" transform="scale(0.015625)"/>
        <path id="DejaVuSans-Bold-53" d="M 3834 4519 
L 3834 3531 
Q 3450 3703 3084 3790 
Q 2719 3878 2394 3878 
Q 1963 3878 1756 3759 
Q 1550 3641 1550 3391 
Q 1550 3203 1689 3098 
Q 1828 2994 2194 2919 
L 2706 2816 
Q 3484 2659 3812 2340 
Q 4141 2022 4141 1434 
Q 4141 663 3683 286 
Q 3225 -91 2284 -91 
Q 1841 -91 1394 -6 
Q 947 78 500 244 
L 500 1259 
Q 947 1022 1364 901 
Q 1781 781 2169 781 
Q 2563 781 2772 912 
Q 2981 1044 2981 1288 
Q 2981 1506 2839 1625 
Q 2697 1744 2272 1838 
L 1806 1941 
Q 1106 2091 782 2419 
Q 459 2747 459 3303 
Q 459 4000 909 4375 
Q 1359 4750 2203 4750 
Q 2588 4750 2994 4692 
Q 3400 4634 3834 4519 
z
" transform="scale(0.015625)"/>
       </defs>
       <use xlink:href="#DejaVuSans-Bold-59"/>
       <use xlink:href="#DejaVuSans-Bold-45" x="72.412109"/>
       <use xlink:href="#DejaVuSans-Bold-53" x="140.722656"/>
      </g>
     </g>
    </g>
   </g>
   <g id="line2d_3">
    <path clip-path="url(#p08b8d5c79a)" style="fill: none; stroke: #424242; stroke-width: 2.7; stroke-linecap: square"/>
   </g>
   <g id="line2d_4">
    <path clip-path="url(#p08b8d5c79a)" style="fill: none; stroke: #424242; stroke-width: 2.7; stroke-linecap: square"/>
   </g>
   <g id="patch_5">
    <path d="M 57.6 119.740235 
L 57.6 41.472 
" style="fill: none; stroke: #000000; stroke-width: 0.8; stroke-linejoin: miter; stroke-linecap: square"/>
   </g>
   <g id="text_3">
    <!-- 393 [23.12%] -->
    <g transform="translate(152.107755 63.798434) scale(0.1 -0.1)">
     <defs>
      <path id="DejaVuSans-Bold-33" d="M 2981 2516 
Q 3453 2394 3698 2092 
Q 3944 1791 3944 1325 
Q 3944 631 3412 270 
Q 2881 -91 1863 -91 
Q 1503 -91 1142 -33 
Q 781 25 428 141 
L 428 1069 
Q 766 900 1098 814 
Q 1431 728 1753 728 
Q 2231 728 2486 893 
Q 2741 1059 2741 1369 
Q 2741 1688 2480 1852 
Q 2219 2016 1709 2016 
L 1228 2016 
L 1228 2791 
L 1734 2791 
Q 2188 2791 2409 2933 
Q 2631 3075 2631 3366 
Q 2631 3634 2415 3781 
Q 2200 3928 1806 3928 
Q 1516 3928 1219 3862 
Q 922 3797 628 3669 
L 628 4550 
Q 984 4650 1334 4700 
Q 1684 4750 2022 4750 
Q 2931 4750 3382 4451 
Q 3834 4153 3834 3553 
Q 3834 3144 3618 2883 
Q 3403 2622 2981 2516 
z
" transform="scale(0.015625)"/>
      <path id="DejaVuSans-Bold-39" d="M 641 103 
L 641 966 
Q 928 831 1190 764 
Q 1453 697 1709 697 
Q 2247 697 2547 995 
Q 2847 1294 2900 1881 
Q 2688 1725 2447 1647 
Q 2206 1569 1925 1569 
Q 1209 1569 770 1986 
Q 331 2403 331 3084 
Q 331 3838 820 4291 
Q 1309 4744 2131 4744 
Q 3044 4744 3544 4128 
Q 4044 3513 4044 2388 
Q 4044 1231 3459 570 
Q 2875 -91 1856 -91 
Q 1528 -91 1228 -42 
Q 928 6 641 103 
z
M 2125 2350 
Q 2441 2350 2600 2554 
Q 2759 2759 2759 3169 
Q 2759 3575 2600 3781 
Q 2441 3988 2125 3988 
Q 1809 3988 1650 3781 
Q 1491 3575 1491 3169 
Q 1491 2759 1650 2554 
Q 1809 2350 2125 2350 
z
" transform="scale(0.015625)"/>
      <path id="DejaVuSans-Bold-20" transform="scale(0.015625)"/>
      <path id="DejaVuSans-Bold-5b" d="M 550 4863 
L 2491 4863 
L 2491 4159 
L 1613 4159 
L 1613 -141 
L 2491 -141 
L 2491 -844 
L 550 -844 
L 550 4863 
z
" transform="scale(0.015625)"/>
      <path id="DejaVuSans-Bold-32" d="M 1844 884 
L 3897 884 
L 3897 0 
L 506 0 
L 506 884 
L 2209 2388 
Q 2438 2594 2547 2791 
Q 2656 2988 2656 3200 
Q 2656 3528 2436 3728 
Q 2216 3928 1850 3928 
Q 1569 3928 1234 3808 
Q 900 3688 519 3450 
L 519 4475 
Q 925 4609 1322 4679 
Q 1719 4750 2100 4750 
Q 2938 4750 3402 4381 
Q 3866 4013 3866 3353 
Q 3866 2972 3669 2642 
Q 3472 2313 2841 1759 
L 1844 884 
z
" transform="scale(0.015625)"/>
      <path id="DejaVuSans-Bold-2e" d="M 653 1209 
L 1778 1209 
L 1778 0 
L 653 0 
L 653 1209 
z
" transform="scale(0.015625)"/>
      <path id="DejaVuSans-Bold-31" d="M 750 831 
L 1813 831 
L 1813 3847 
L 722 3622 
L 722 4441 
L 1806 4666 
L 2950 4666 
L 2950 831 
L 4013 831 
L 4013 0 
L 750 0 
L 750 831 
z
" transform="scale(0.015625)"/>
      <path id="DejaVuSans-Bold-25" d="M 4959 1925 
Q 4738 1925 4616 1733 
Q 4494 1541 4494 1184 
Q 4494 825 4614 633 
Q 4734 441 4959 441 
Q 5184 441 5303 633 
Q 5422 825 5422 1184 
Q 5422 1541 5301 1733 
Q 5181 1925 4959 1925 
z
M 4959 2450 
Q 5541 2450 5875 2112 
Q 6209 1775 6209 1184 
Q 6209 594 5875 251 
Q 5541 -91 4959 -91 
Q 4378 -91 4042 251 
Q 3706 594 3706 1184 
Q 3706 1772 4042 2111 
Q 4378 2450 4959 2450 
z
M 2094 -91 
L 1403 -91 
L 4319 4750 
L 5013 4750 
L 2094 -91 
z
M 1453 4750 
Q 2034 4750 2367 4411 
Q 2700 4072 2700 3481 
Q 2700 2891 2367 2550 
Q 2034 2209 1453 2209 
Q 872 2209 539 2550 
Q 206 2891 206 3481 
Q 206 4072 539 4411 
Q 872 4750 1453 4750 
z
M 1453 4225 
Q 1228 4225 1106 4031 
Q 984 3838 984 3481 
Q 984 3122 1106 2926 
Q 1228 2731 1453 2731 
Q 1678 2731 1798 2926 
Q 1919 3122 1919 3481 
Q 1919 3838 1797 4031 
Q 1675 4225 1453 4225 
z
" transform="scale(0.015625)"/>
      <path id="DejaVuSans-Bold-5d" d="M 2375 -844 
L 434 -844 
L 434 -141 
L 1313 -141 
L 1313 4159 
L 434 4159 
L 434 4863 
L 2375 4863 
L 2375 -844 
z
" transform="scale(0.015625)"/>
     </defs>
     <use xlink:href="#DejaVuSans-Bold-33"/>
     <use xlink:href="#DejaVuSans-Bold-39" x="69.580078"/>
     <use xlink:href="#DejaVuSans-Bold-33" x="139.160156"/>
     <use xlink:href="#DejaVuSans-Bold-20" x="208.740234"/>
     <use xlink:href="#DejaVuSans-Bold-5b" x="243.554688"/>
     <use xlink:href="#DejaVuSans-Bold-32" x="289.257812"/>
     <use xlink:href="#DejaVuSans-Bold-33" x="358.837891"/>
     <use xlink:href="#DejaVuSans-Bold-2e" x="428.417969"/>
     <use xlink:href="#DejaVuSans-Bold-31" x="466.40625"/>
     <use xlink:href="#DejaVuSans-Bold-32" x="535.986328"/>
     <use xlink:href="#DejaVuSans-Bold-25" x="605.566406"/>
     <use xlink:href="#DejaVuSans-Bold-5d" x="705.761719"/>
    </g>
   </g>
   <g id="text_4">
    <!-- 1307 [76.88%] -->
    <g transform="translate(360.275918 102.932551) scale(0.1 -0.1)">
     <defs>
      <path id="DejaVuSans-Bold-30" d="M 2944 2338 
Q 2944 3213 2780 3570 
Q 2616 3928 2228 3928 
Q 1841 3928 1675 3570 
Q 1509 3213 1509 2338 
Q 1509 1453 1675 1090 
Q 1841 728 2228 728 
Q 2613 728 2778 1090 
Q 2944 1453 2944 2338 
z
M 4147 2328 
Q 4147 1169 3647 539 
Q 3147 -91 2228 -91 
Q 1306 -91 806 539 
Q 306 1169 306 2328 
Q 306 3491 806 4120 
Q 1306 4750 2228 4750 
Q 3147 4750 3647 4120 
Q 4147 3491 4147 2328 
z
" transform="scale(0.015625)"/>
      <path id="DejaVuSans-Bold-37" d="M 428 4666 
L 3944 4666 
L 3944 3988 
L 2125 0 
L 953 0 
L 2675 3781 
L 428 3781 
L 428 4666 
z
" transform="scale(0.015625)"/>
      <path id="DejaVuSans-Bold-36" d="M 2316 2303 
Q 2000 2303 1842 2098 
Q 1684 1894 1684 1484 
Q 1684 1075 1842 870 
Q 2000 666 2316 666 
Q 2634 666 2792 870 
Q 2950 1075 2950 1484 
Q 2950 1894 2792 2098 
Q 2634 2303 2316 2303 
z
M 3803 4544 
L 3803 3681 
Q 3506 3822 3243 3889 
Q 2981 3956 2731 3956 
Q 2194 3956 1894 3657 
Q 1594 3359 1544 2772 
Q 1750 2925 1990 3001 
Q 2231 3078 2516 3078 
Q 3231 3078 3670 2659 
Q 4109 2241 4109 1563 
Q 4109 813 3618 361 
Q 3128 -91 2303 -91 
Q 1394 -91 895 523 
Q 397 1138 397 2266 
Q 397 3422 980 4083 
Q 1563 4744 2578 4744 
Q 2900 4744 3203 4694 
Q 3506 4644 3803 4544 
z
" transform="scale(0.015625)"/>
      <path id="DejaVuSans-Bold-38" d="M 2228 2088 
Q 1891 2088 1709 1903 
Q 1528 1719 1528 1375 
Q 1528 1031 1709 848 
Q 1891 666 2228 666 
Q 2563 666 2741 848 
Q 2919 1031 2919 1375 
Q 2919 1722 2741 1905 
Q 2563 2088 2228 2088 
z
M 1350 2484 
Q 925 2613 709 2878 
Q 494 3144 494 3541 
Q 494 4131 934 4440 
Q 1375 4750 2228 4750 
Q 3075 4750 3515 4442 
Q 3956 4134 3956 3541 
Q 3956 3144 3739 2878 
Q 3522 2613 3097 2484 
Q 3572 2353 3814 2058 
Q 4056 1763 4056 1313 
Q 4056 619 3595 264 
Q 3134 -91 2228 -91 
Q 1319 -91 855 264 
Q 391 619 391 1313 
Q 391 1763 633 2058 
Q 875 2353 1350 2484 
z
M 1631 3419 
Q 1631 3141 1786 2991 
Q 1941 2841 2228 2841 
Q 2509 2841 2662 2991 
Q 2816 3141 2816 3419 
Q 2816 3697 2662 3845 
Q 2509 3994 2228 3994 
Q 1941 3994 1786 3844 
Q 1631 3694 1631 3419 
z
" transform="scale(0.015625)"/>
     </defs>
     <use xlink:href="#DejaVuSans-Bold-31"/>
     <use xlink:href="#DejaVuSans-Bold-33" x="69.580078"/>
     <use xlink:href="#DejaVuSans-Bold-30" x="139.160156"/>
     <use xlink:href="#DejaVuSans-Bold-37" x="208.740234"/>
     <use xlink:href="#DejaVuSans-Bold-20" x="278.320312"/>
     <use xlink:href="#DejaVuSans-Bold-5b" x="313.134766"/>
     <use xlink:href="#DejaVuSans-Bold-37" x="358.837891"/>
     <use xlink:href="#DejaVuSans-Bold-36" x="428.417969"/>
     <use xlink:href="#DejaVuSans-Bold-2e" x="497.998047"/>
     <use xlink:href="#DejaVuSans-Bold-38" x="535.986328"/>
     <use xlink:href="#DejaVuSans-Bold-38" x="605.566406"/>
     <use xlink:href="#DejaVuSans-Bold-25" x="675.146484"/>
     <use xlink:href="#DejaVuSans-Bold-5d" x="775.341797"/>
    </g>
   </g>
   <g id="text_5">
    <!-- CLIMATE DETECTION -->
    <g transform="translate(167.14875 35.472) scale(0.12 -0.12)">
     <defs>
      <path id="DejaVuSans-Bold-43" d="M 4288 256 
Q 3956 84 3597 -3 
Q 3238 -91 2847 -91 
Q 1681 -91 1000 561 
Q 319 1213 319 2328 
Q 319 3447 1000 4098 
Q 1681 4750 2847 4750 
Q 3238 4750 3597 4662 
Q 3956 4575 4288 4403 
L 4288 3438 
Q 3953 3666 3628 3772 
Q 3303 3878 2944 3878 
Q 2300 3878 1931 3465 
Q 1563 3053 1563 2328 
Q 1563 1606 1931 1193 
Q 2300 781 2944 781 
Q 3303 781 3628 887 
Q 3953 994 4288 1222 
L 4288 256 
z
" transform="scale(0.015625)"/>
      <path id="DejaVuSans-Bold-4c" d="M 588 4666 
L 1791 4666 
L 1791 909 
L 3903 909 
L 3903 0 
L 588 0 
L 588 4666 
z
" transform="scale(0.015625)"/>
      <path id="DejaVuSans-Bold-49" d="M 588 4666 
L 1791 4666 
L 1791 0 
L 588 0 
L 588 4666 
z
" transform="scale(0.015625)"/>
      <path id="DejaVuSans-Bold-4d" d="M 588 4666 
L 2119 4666 
L 3181 2169 
L 4250 4666 
L 5778 4666 
L 5778 0 
L 4641 0 
L 4641 3413 
L 3566 897 
L 2803 897 
L 1728 3413 
L 1728 0 
L 588 0 
L 588 4666 
z
" transform="scale(0.015625)"/>
      <path id="DejaVuSans-Bold-41" d="M 3419 850 
L 1538 850 
L 1241 0 
L 31 0 
L 1759 4666 
L 3194 4666 
L 4922 0 
L 3713 0 
L 3419 850 
z
M 1838 1716 
L 3116 1716 
L 2478 3572 
L 1838 1716 
z
" transform="scale(0.015625)"/>
      <path id="DejaVuSans-Bold-54" d="M 31 4666 
L 4331 4666 
L 4331 3756 
L 2784 3756 
L 2784 0 
L 1581 0 
L 1581 3756 
L 31 3756 
L 31 4666 
z
" transform="scale(0.015625)"/>
      <path id="DejaVuSans-Bold-44" d="M 1791 3756 
L 1791 909 
L 2222 909 
Q 2959 909 3348 1275 
Q 3738 1641 3738 2338 
Q 3738 3031 3350 3393 
Q 2963 3756 2222 3756 
L 1791 3756 
z
M 588 4666 
L 1856 4666 
Q 2919 4666 3439 4514 
Q 3959 4363 4331 4000 
Q 4659 3684 4818 3271 
Q 4978 2859 4978 2338 
Q 4978 1809 4818 1395 
Q 4659 981 4331 666 
Q 3956 303 3431 151 
Q 2906 0 1856 0 
L 588 0 
L 588 4666 
z
" transform="scale(0.015625)"/>
     </defs>
     <use xlink:href="#DejaVuSans-Bold-43"/>
     <use xlink:href="#DejaVuSans-Bold-4c" x="73.388672"/>
     <use xlink:href="#DejaVuSans-Bold-49" x="137.109375"/>
     <use xlink:href="#DejaVuSans-Bold-4d" x="174.316406"/>
     <use xlink:href="#DejaVuSans-Bold-41" x="273.828125"/>
     <use xlink:href="#DejaVuSans-Bold-54" x="343.470703"/>
     <use xlink:href="#DejaVuSans-Bold-45" x="411.683594"/>
     <use xlink:href="#DejaVuSans-Bold-20" x="479.994141"/>
     <use xlink:href="#DejaVuSans-Bold-44" x="514.808594"/>
     <use xlink:href="#DejaVuSans-Bold-45" x="597.816406"/>
     <use xlink:href="#DejaVuSans-Bold-54" x="666.126953"/>
     <use xlink:href="#DejaVuSans-Bold-45" x="734.339844"/>
     <use xlink:href="#DejaVuSans-Bold-43" x="802.650391"/>
     <use xlink:href="#DejaVuSans-Bold-54" x="876.039062"/>
     <use xlink:href="#DejaVuSans-Bold-49" x="944.251953"/>
     <use xlink:href="#DejaVuSans-Bold-4f" x="981.458984"/>
     <use xlink:href="#DejaVuSans-Bold-4e" x="1066.46875"/>
    </g>
   </g>
  </g>
  <g id="axes_2">
   <g id="patch_6">
    <path d="M 57.6 213.662118 
L 414.72 213.662118 
L 414.72 135.393882 
L 57.6 135.393882 
z
" style="fill: #ffffff"/>
   </g>
   <g id="patch_7">
    <path d="M 57.6 145.177412 
L 355.275057 145.177412 
L 355.275057 164.744471 
L 57.6 164.744471 
z
" clip-path="url(#p687942df8f)" style="fill: #9cc9bc"/>
   </g>
   <g id="patch_8">
    <path d="M 57.6 184.311529 
L 157.275359 184.311529 
L 157.275359 203.878588 
L 57.6 203.878588 
z
" clip-path="url(#p687942df8f)" style="fill: #7db7ba"/>
   </g>
   <g id="matplotlib.axis_2">
    <g id="ytick_3">
     <g id="line2d_5">
      <g>
       <use xlink:href="#mdb28f47eb3" x="57.6" y="154.960941" style="stroke: #000000; stroke-width: 0.8"/>
      </g>
     </g>
     <g id="text_6">
      <!-- NO -->
      <g transform="translate(33.729687 158.76016) scale(0.1 -0.1)">
       <use xlink:href="#DejaVuSans-Bold-4e"/>
       <use xlink:href="#DejaVuSans-Bold-4f" x="83.691406"/>
      </g>
     </g>
    </g>
    <g id="ytick_4">
     <g id="line2d_6">
      <g>
       <use xlink:href="#mdb28f47eb3" x="57.6" y="194.095059" style="stroke: #000000; stroke-width: 0.8"/>
      </g>
     </g>
     <g id="text_7">
      <!-- YES -->
      <g transform="translate(29.326563 197.894278) scale(0.1 -0.1)">
       <use xlink:href="#DejaVuSans-Bold-59"/>
       <use xlink:href="#DejaVuSans-Bold-45" x="72.412109"/>
       <use xlink:href="#DejaVuSans-Bold-53" x="140.722656"/>
      </g>
     </g>
    </g>
   </g>
   <g id="line2d_7">
    <path clip-path="url(#p687942df8f)" style="fill: none; stroke: #424242; stroke-width: 2.7; stroke-linecap: square"/>
   </g>
   <g id="line2d_8">
    <path clip-path="url(#p687942df8f)" style="fill: none; stroke: #424242; stroke-width: 2.7; stroke-linecap: square"/>
   </g>
   <g id="patch_9">
    <path d="M 57.6 213.662118 
L 57.6 135.393882 
" style="fill: none; stroke: #000000; stroke-width: 0.8; stroke-linejoin: miter; stroke-linecap: square"/>
   </g>
   <g id="text_8">
    <!-- 1983 [74.91%] -->
    <g transform="translate(360.275057 157.720316) scale(0.1 -0.1)">
     <defs>
      <path id="DejaVuSans-Bold-34" d="M 2356 3675 
L 1038 1722 
L 2356 1722 
L 2356 3675 
z
M 2156 4666 
L 3494 4666 
L 3494 1722 
L 4159 1722 
L 4159 850 
L 3494 850 
L 3494 0 
L 2356 0 
L 2356 850 
L 288 850 
L 288 1881 
L 2156 4666 
z
" transform="scale(0.015625)"/>
     </defs>
     <use xlink:href="#DejaVuSans-Bold-31"/>
     <use xlink:href="#DejaVuSans-Bold-39" x="69.580078"/>
     <use xlink:href="#DejaVuSans-Bold-38" x="139.160156"/>
     <use xlink:href="#DejaVuSans-Bold-33" x="208.740234"/>
     <use xlink:href="#DejaVuSans-Bold-20" x="278.320312"/>
     <use xlink:href="#DejaVuSans-Bold-5b" x="313.134766"/>
     <use xlink:href="#DejaVuSans-Bold-37" x="358.837891"/>
     <use xlink:href="#DejaVuSans-Bold-34" x="428.417969"/>
     <use xlink:href="#DejaVuSans-Bold-2e" x="497.998047"/>
     <use xlink:href="#DejaVuSans-Bold-39" x="535.986328"/>
     <use xlink:href="#DejaVuSans-Bold-31" x="605.566406"/>
     <use xlink:href="#DejaVuSans-Bold-25" x="675.146484"/>
     <use xlink:href="#DejaVuSans-Bold-5d" x="775.341797"/>
    </g>
   </g>
   <g id="text_9">
    <!-- 664 [25.09%] -->
    <g transform="translate(162.275359 196.854434) scale(0.1 -0.1)">
     <defs>
      <path id="DejaVuSans-Bold-35" d="M 678 4666 
L 3669 4666 
L 3669 3781 
L 1638 3781 
L 1638 3059 
Q 1775 3097 1914 3117 
Q 2053 3138 2203 3138 
Q 3056 3138 3531 2711 
Q 4006 2284 4006 1522 
Q 4006 766 3489 337 
Q 2972 -91 2053 -91 
Q 1656 -91 1267 -14 
Q 878 63 494 219 
L 494 1166 
Q 875 947 1217 837 
Q 1559 728 1863 728 
Q 2300 728 2551 942 
Q 2803 1156 2803 1522 
Q 2803 1891 2551 2103 
Q 2300 2316 1863 2316 
Q 1603 2316 1309 2248 
Q 1016 2181 678 2041 
L 678 4666 
z
" transform="scale(0.015625)"/>
     </defs>
     <use xlink:href="#DejaVuSans-Bold-36"/>
     <use xlink:href="#DejaVuSans-Bold-36" x="69.580078"/>
     <use xlink:href="#DejaVuSans-Bold-34" x="139.160156"/>
     <use xlink:href="#DejaVuSans-Bold-20" x="208.740234"/>
     <use xlink:href="#DejaVuSans-Bold-5b" x="243.554688"/>
     <use xlink:href="#DejaVuSans-Bold-32" x="289.257812"/>
     <use xlink:href="#DejaVuSans-Bold-35" x="358.837891"/>
     <use xlink:href="#DejaVuSans-Bold-2e" x="428.417969"/>
     <use xlink:href="#DejaVuSans-Bold-30" x="466.40625"/>
     <use xlink:href="#DejaVuSans-Bold-39" x="535.986328"/>
     <use xlink:href="#DejaVuSans-Bold-25" x="605.566406"/>
     <use xlink:href="#DejaVuSans-Bold-5d" x="705.761719"/>
    </g>
   </g>
   <g id="text_10">
    <!-- ENVIRONMENTAL CLAIMS -->
    <g transform="translate(150.75375 129.393882) scale(0.12 -0.12)">
     <defs>
      <path id="DejaVuSans-Bold-56" d="M 31 4666 
L 1241 4666 
L 2478 1222 
L 3713 4666 
L 4922 4666 
L 3194 0 
L 1759 0 
L 31 4666 
z
" transform="scale(0.015625)"/>
      <path id="DejaVuSans-Bold-52" d="M 2297 2597 
Q 2675 2597 2839 2737 
Q 3003 2878 3003 3200 
Q 3003 3519 2839 3656 
Q 2675 3794 2297 3794 
L 1791 3794 
L 1791 2597 
L 2297 2597 
z
M 1791 1766 
L 1791 0 
L 588 0 
L 588 4666 
L 2425 4666 
Q 3347 4666 3776 4356 
Q 4206 4047 4206 3378 
Q 4206 2916 3982 2619 
Q 3759 2322 3309 2181 
Q 3556 2125 3751 1926 
Q 3947 1728 4147 1325 
L 4800 0 
L 3519 0 
L 2950 1159 
Q 2778 1509 2601 1637 
Q 2425 1766 2131 1766 
L 1791 1766 
z
" transform="scale(0.015625)"/>
     </defs>
     <use xlink:href="#DejaVuSans-Bold-45"/>
     <use xlink:href="#DejaVuSans-Bold-4e" x="68.310547"/>
     <use xlink:href="#DejaVuSans-Bold-56" x="152.001953"/>
     <use xlink:href="#DejaVuSans-Bold-49" x="229.394531"/>
     <use xlink:href="#DejaVuSans-Bold-52" x="266.601562"/>
     <use xlink:href="#DejaVuSans-Bold-4f" x="343.603516"/>
     <use xlink:href="#DejaVuSans-Bold-4e" x="428.613281"/>
     <use xlink:href="#DejaVuSans-Bold-4d" x="512.304688"/>
     <use xlink:href="#DejaVuSans-Bold-45" x="611.816406"/>
     <use xlink:href="#DejaVuSans-Bold-4e" x="680.126953"/>
     <use xlink:href="#DejaVuSans-Bold-54" x="763.818359"/>
     <use xlink:href="#DejaVuSans-Bold-41" x="824.28125"/>
     <use xlink:href="#DejaVuSans-Bold-4c" x="901.673828"/>
     <use xlink:href="#DejaVuSans-Bold-20" x="965.394531"/>
     <use xlink:href="#DejaVuSans-Bold-43" x="1000.208984"/>
     <use xlink:href="#DejaVuSans-Bold-4c" x="1073.597656"/>
     <use xlink:href="#DejaVuSans-Bold-41" x="1137.318359"/>
     <use xlink:href="#DejaVuSans-Bold-49" x="1214.710938"/>
     <use xlink:href="#DejaVuSans-Bold-4d" x="1251.917969"/>
     <use xlink:href="#DejaVuSans-Bold-53" x="1351.429688"/>
    </g>
   </g>
  </g>
  <g id="axes_3">
   <g id="patch_10">
    <path d="M 57.6 307.584 
L 414.72 307.584 
L 414.72 229.315765 
L 57.6 229.315765 
z
" style="fill: #ffffff"/>
   </g>
   <g id="patch_11">
    <path d="M 57.6 235.838118 
L 355.476837 235.838118 
L 355.476837 248.882824 
L 57.6 248.882824 
z
" clip-path="url(#pc4c47f301c)" style="fill: #9cc9bc"/>
   </g>
   <g id="patch_12">
    <path d="M 57.6 261.927529 
L 307.307163 261.927529 
L 307.307163 274.972235 
L 57.6 274.972235 
z
" clip-path="url(#pc4c47f301c)" style="fill: #7db7ba"/>
   </g>
   <g id="patch_13">
    <path d="M 57.6 288.016941 
L 240.866233 288.016941 
L 240.866233 301.061647 
L 57.6 301.061647 
z
" clip-path="url(#pc4c47f301c)" style="fill: #62a7bb"/>
   </g>
   <g id="matplotlib.axis_3">
    <g id="ytick_5">
     <g id="line2d_9">
      <g>
       <use xlink:href="#mdb28f47eb3" x="57.6" y="242.360471" style="stroke: #000000; stroke-width: 0.8"/>
      </g>
     </g>
     <g id="text_11">
      <!-- NEUTRAL -->
      <g transform="translate(-1.353125 246.159689) scale(0.1 -0.1)">
       <defs>
        <path id="DejaVuSans-Bold-55" d="M 588 4666 
L 1791 4666 
L 1791 1869 
Q 1791 1291 1980 1042 
Q 2169 794 2597 794 
Q 3028 794 3217 1042 
Q 3406 1291 3406 1869 
L 3406 4666 
L 4609 4666 
L 4609 1869 
Q 4609 878 4112 393 
Q 3616 -91 2597 -91 
Q 1581 -91 1084 393 
Q 588 878 588 1869 
L 588 4666 
z
" transform="scale(0.015625)"/>
       </defs>
       <use xlink:href="#DejaVuSans-Bold-4e"/>
       <use xlink:href="#DejaVuSans-Bold-45" x="83.691406"/>
       <use xlink:href="#DejaVuSans-Bold-55" x="152.001953"/>
       <use xlink:href="#DejaVuSans-Bold-54" x="233.203125"/>
       <use xlink:href="#DejaVuSans-Bold-52" x="301.416016"/>
       <use xlink:href="#DejaVuSans-Bold-41" x="378.417969"/>
       <use xlink:href="#DejaVuSans-Bold-4c" x="455.810547"/>
      </g>
     </g>
    </g>
    <g id="ytick_6">
     <g id="line2d_10">
      <g>
       <use xlink:href="#mdb28f47eb3" x="57.6" y="268.449882" style="stroke: #000000; stroke-width: 0.8"/>
      </g>
     </g>
     <g id="text_12">
      <!-- RISK -->
      <g transform="translate(24.229688 272.249101) scale(0.1 -0.1)">
       <defs>
        <path id="DejaVuSans-Bold-4b" d="M 588 4666 
L 1791 4666 
L 1791 2963 
L 3525 4666 
L 4922 4666 
L 2675 2456 
L 5153 0 
L 3647 0 
L 1791 1838 
L 1791 0 
L 588 0 
L 588 4666 
z
" transform="scale(0.015625)"/>
       </defs>
       <use xlink:href="#DejaVuSans-Bold-52"/>
       <use xlink:href="#DejaVuSans-Bold-49" x="77.001953"/>
       <use xlink:href="#DejaVuSans-Bold-53" x="114.208984"/>
       <use xlink:href="#DejaVuSans-Bold-4b" x="186.230469"/>
      </g>
     </g>
    </g>
    <g id="ytick_7">
     <g id="line2d_11">
      <g>
       <use xlink:href="#mdb28f47eb3" x="57.6" y="294.539294" style="stroke: #000000; stroke-width: 0.8"/>
      </g>
     </g>
     <g id="text_13">
      <!-- OPPORTUNITY -->
      <g transform="translate(-29.40625 298.338513) scale(0.1 -0.1)">
       <defs>
        <path id="DejaVuSans-Bold-50" d="M 588 4666 
L 2584 4666 
Q 3475 4666 3951 4270 
Q 4428 3875 4428 3144 
Q 4428 2409 3951 2014 
Q 3475 1619 2584 1619 
L 1791 1619 
L 1791 0 
L 588 0 
L 588 4666 
z
M 1791 3794 
L 1791 2491 
L 2456 2491 
Q 2806 2491 2997 2661 
Q 3188 2831 3188 3144 
Q 3188 3456 2997 3625 
Q 2806 3794 2456 3794 
L 1791 3794 
z
" transform="scale(0.015625)"/>
       </defs>
       <use xlink:href="#DejaVuSans-Bold-4f"/>
       <use xlink:href="#DejaVuSans-Bold-50" x="85.009766"/>
       <use xlink:href="#DejaVuSans-Bold-50" x="158.300781"/>
       <use xlink:href="#DejaVuSans-Bold-4f" x="231.591797"/>
       <use xlink:href="#DejaVuSans-Bold-52" x="316.601562"/>
       <use xlink:href="#DejaVuSans-Bold-54" x="389.103516"/>
       <use xlink:href="#DejaVuSans-Bold-55" x="457.316406"/>
       <use xlink:href="#DejaVuSans-Bold-4e" x="538.517578"/>
       <use xlink:href="#DejaVuSans-Bold-49" x="622.208984"/>
       <use xlink:href="#DejaVuSans-Bold-54" x="659.416016"/>
       <use xlink:href="#DejaVuSans-Bold-59" x="727.628906"/>
      </g>
     </g>
    </g>
   </g>
   <g id="line2d_12">
    <path clip-path="url(#pc4c47f301c)" style="fill: none; stroke: #424242; stroke-width: 2.7; stroke-linecap: square"/>
   </g>
   <g id="line2d_13">
    <path clip-path="url(#pc4c47f301c)" style="fill: none; stroke: #424242; stroke-width: 2.7; stroke-linecap: square"/>
   </g>
   <g id="line2d_14">
    <path clip-path="url(#pc4c47f301c)" style="fill: none; stroke: #424242; stroke-width: 2.7; stroke-linecap: square"/>
   </g>
   <g id="patch_14">
    <path d="M 57.6 307.584 
L 57.6 229.315765 
" style="fill: none; stroke: #000000; stroke-width: 0.8; stroke-linejoin: miter; stroke-linecap: square"/>
   </g>
   <g id="text_14">
    <!-- 538 [40.76%] -->
    <g transform="translate(360.476837 245.119846) scale(0.1 -0.1)">
     <use xlink:href="#DejaVuSans-Bold-35"/>
     <use xlink:href="#DejaVuSans-Bold-33" x="69.580078"/>
     <use xlink:href="#DejaVuSans-Bold-38" x="139.160156"/>
     <use xlink:href="#DejaVuSans-Bold-20" x="208.740234"/>
     <use xlink:href="#DejaVuSans-Bold-5b" x="243.554688"/>
     <use xlink:href="#DejaVuSans-Bold-34" x="289.257812"/>
     <use xlink:href="#DejaVuSans-Bold-30" x="358.837891"/>
     <use xlink:href="#DejaVuSans-Bold-2e" x="428.417969"/>
     <use xlink:href="#DejaVuSans-Bold-37" x="466.40625"/>
     <use xlink:href="#DejaVuSans-Bold-36" x="535.986328"/>
     <use xlink:href="#DejaVuSans-Bold-25" x="605.566406"/>
     <use xlink:href="#DejaVuSans-Bold-5d" x="705.761719"/>
    </g>
   </g>
   <g id="text_15">
    <!-- 451 [34.17%] -->
    <g transform="translate(312.307163 271.209257) scale(0.1 -0.1)">
     <use xlink:href="#DejaVuSans-Bold-34"/>
     <use xlink:href="#DejaVuSans-Bold-35" x="69.580078"/>
     <use xlink:href="#DejaVuSans-Bold-31" x="139.160156"/>
     <use xlink:href="#DejaVuSans-Bold-20" x="208.740234"/>
     <use xlink:href="#DejaVuSans-Bold-5b" x="243.554688"/>
     <use xlink:href="#DejaVuSans-Bold-33" x="289.257812"/>
     <use xlink:href="#DejaVuSans-Bold-34" x="358.837891"/>
     <use xlink:href="#DejaVuSans-Bold-2e" x="428.417969"/>
     <use xlink:href="#DejaVuSans-Bold-31" x="466.40625"/>
     <use xlink:href="#DejaVuSans-Bold-37" x="535.986328"/>
     <use xlink:href="#DejaVuSans-Bold-25" x="605.566406"/>
     <use xlink:href="#DejaVuSans-Bold-5d" x="705.761719"/>
    </g>
   </g>
   <g id="text_16">
    <!-- 331 [25.08%] -->
    <g transform="translate(245.866233 297.298669) scale(0.1 -0.1)">
     <use xlink:href="#DejaVuSans-Bold-33"/>
     <use xlink:href="#DejaVuSans-Bold-33" x="69.580078"/>
     <use xlink:href="#DejaVuSans-Bold-31" x="139.160156"/>
     <use xlink:href="#DejaVuSans-Bold-20" x="208.740234"/>
     <use xlink:href="#DejaVuSans-Bold-5b" x="243.554688"/>
     <use xlink:href="#DejaVuSans-Bold-32" x="289.257812"/>
     <use xlink:href="#DejaVuSans-Bold-35" x="358.837891"/>
     <use xlink:href="#DejaVuSans-Bold-2e" x="428.417969"/>
     <use xlink:href="#DejaVuSans-Bold-30" x="466.40625"/>
     <use xlink:href="#DejaVuSans-Bold-38" x="535.986328"/>
     <use xlink:href="#DejaVuSans-Bold-25" x="605.566406"/>
     <use xlink:href="#DejaVuSans-Bold-5d" x="705.761719"/>
    </g>
   </g>
   <g id="text_17">
    <!-- CLIMATE SENTIMENT -->
    <g transform="translate(166.320938 223.315765) scale(0.12 -0.12)">
     <use xlink:href="#DejaVuSans-Bold-43"/>
     <use xlink:href="#DejaVuSans-Bold-4c" x="73.388672"/>
     <use xlink:href="#DejaVuSans-Bold-49" x="137.109375"/>
     <use xlink:href="#DejaVuSans-Bold-4d" x="174.316406"/>
     <use xlink:href="#DejaVuSans-Bold-41" x="273.828125"/>
     <use xlink:href="#DejaVuSans-Bold-54" x="343.470703"/>
     <use xlink:href="#DejaVuSans-Bold-45" x="411.683594"/>
     <use xlink:href="#DejaVuSans-Bold-20" x="479.994141"/>
     <use xlink:href="#DejaVuSans-Bold-53" x="514.808594"/>
     <use xlink:href="#DejaVuSans-Bold-45" x="586.830078"/>
     <use xlink:href="#DejaVuSans-Bold-4e" x="655.140625"/>
     <use xlink:href="#DejaVuSans-Bold-54" x="738.832031"/>
     <use xlink:href="#DejaVuSans-Bold-49" x="807.044922"/>
     <use xlink:href="#DejaVuSans-Bold-4d" x="844.251953"/>
     <use xlink:href="#DejaVuSans-Bold-45" x="943.763672"/>
     <use xlink:href="#DejaVuSans-Bold-4e" x="1012.074219"/>
     <use xlink:href="#DejaVuSans-Bold-54" x="1095.765625"/>
    </g>
   </g>
  </g>
 </g>
 <defs>
  <clipPath id="p08b8d5c79a">
   <rect x="57.6" y="41.472" width="357.12" height="78.268235"/>
  </clipPath>
  <clipPath id="p687942df8f">
   <rect x="57.6" y="135.393882" width="357.12" height="78.268235"/>
  </clipPath>
  <clipPath id="pc4c47f301c">
   <rect x="57.6" y="229.315765" width="357.12" height="78.268235"/>
  </clipPath>
 </defs>
</svg>
