<?xml version="1.0" encoding="utf-8" standalone="no"?>
<!DOCTYPE svg PUBLIC "-//W3C//DTD SVG 1.1//EN"
  "http://www.w3.org/Graphics/SVG/1.1/DTD/svg11.dtd">
<svg xmlns:xlink="http://www.w3.org/1999/xlink" width="576pt" height="432pt" viewBox="0 0 576 432" xmlns="http://www.w3.org/2000/svg" version="1.1">
 <metadata>
  <rdf:RDF xmlns:dc="http://purl.org/dc/elements/1.1/" xmlns:cc="http://creativecommons.org/ns#" xmlns:rdf="http://www.w3.org/1999/02/22-rdf-syntax-ns#">
   <cc:Work>
    <dc:type rdf:resource="http://purl.org/dc/dcmitype/StillImage"/>
    <dc:date>2024-04-15T14:43:50.570246</dc:date>
    <dc:format>image/svg+xml</dc:format>
    <dc:creator>
     <cc:Agent>
      <dc:title>Matplotlib v3.7.3, https://matplotlib.org/</dc:title>
     </cc:Agent>
    </dc:creator>
   </cc:Work>
  </rdf:RDF>
 </metadata>
 <defs>
  <style type="text/css">*{stroke-linejoin: round; stroke-linecap: butt}</style>
 </defs>
 <g id="figure_1">
  <g id="patch_1">
   <path d="M 0 432 
L 576 432 
L 576 0 
L 0 0 
z
" style="fill: #ffffff"/>
  </g>
  <g id="axes_1">
   <g id="patch_2">
    <path d="M 72 384.48 
L 518.4 384.48 
L 518.4 51.84 
L 72 51.84 
z
" style="fill: #ffffff"/>
   </g>
   <g id="patch_3">
    <path d="M 92.290909 384.48 
L 100.407273 384.48 
L 100.407273 323.829495 
L 92.290909 323.829495 
z
" clip-path="url(#p76d62e11e5)" style="fill: #1f77b4; fill-opacity: 0.75; stroke: #ffffff; stroke-width: 0.75; stroke-linejoin: miter"/>
   </g>
   <g id="patch_4">
    <path d="M 100.407273 384.48 
L 108.523636 384.48 
L 108.523636 72.793366 
L 100.407273 72.793366 
z
" clip-path="url(#p76d62e11e5)" style="fill: #1f77b4; fill-opacity: 0.75; stroke: #ffffff; stroke-width: 0.75; stroke-linejoin: miter"/>
   </g>
   <g id="patch_5">
    <path d="M 108.523636 384.48 
L 116.64 384.48 
L 116.64 67.68 
L 108.523636 67.68 
z
" clip-path="url(#p76d62e11e5)" style="fill: #1f77b4; fill-opacity: 0.75; stroke: #ffffff; stroke-width: 0.75; stroke-linejoin: miter"/>
   </g>
   <g id="patch_6">
    <path d="M 116.64 384.48 
L 124.756364 384.48 
L 124.756364 268.512061 
L 116.64 268.512061 
z
" clip-path="url(#p76d62e11e5)" style="fill: #1f77b4; fill-opacity: 0.75; stroke: #ffffff; stroke-width: 0.75; stroke-linejoin: miter"/>
   </g>
   <g id="patch_7">
    <path d="M 124.756364 384.48 
L 132.872727 384.48 
L 132.872727 340.743788 
L 124.756364 340.743788 
z
" clip-path="url(#p76d62e11e5)" style="fill: #1f77b4; fill-opacity: 0.75; stroke: #ffffff; stroke-width: 0.75; stroke-linejoin: miter"/>
   </g>
   <g id="patch_8">
    <path d="M 132.872727 384.48 
L 140.989091 384.48 
L 140.989091 365.094346 
L 132.872727 365.094346 
z
" clip-path="url(#p76d62e11e5)" style="fill: #1f77b4; fill-opacity: 0.75; stroke: #ffffff; stroke-width: 0.75; stroke-linejoin: miter"/>
   </g>
   <g id="patch_9">
    <path d="M 140.989091 384.48 
L 149.105455 384.48 
L 149.105455 373.914539 
L 140.989091 373.914539 
z
" clip-path="url(#p76d62e11e5)" style="fill: #1f77b4; fill-opacity: 0.75; stroke: #ffffff; stroke-width: 0.75; stroke-linejoin: miter"/>
   </g>
   <g id="patch_10">
    <path d="M 149.105455 384.48 
L 157.221818 384.48 
L 157.221818 377.617101 
L 149.105455 377.617101 
z
" clip-path="url(#p76d62e11e5)" style="fill: #1f77b4; fill-opacity: 0.75; stroke: #ffffff; stroke-width: 0.75; stroke-linejoin: miter"/>
   </g>
   <g id="patch_11">
    <path d="M 157.221818 384.48 
L 165.338182 384.48 
L 165.338182 380.842284 
L 157.221818 380.842284 
z
" clip-path="url(#p76d62e11e5)" style="fill: #1f77b4; fill-opacity: 0.75; stroke: #ffffff; stroke-width: 0.75; stroke-linejoin: miter"/>
   </g>
   <g id="patch_12">
    <path d="M 165.338182 384.48 
L 173.454545 384.48 
L 173.454545 381.973231 
L 165.338182 381.973231 
z
" clip-path="url(#p76d62e11e5)" style="fill: #1f77b4; fill-opacity: 0.75; stroke: #ffffff; stroke-width: 0.75; stroke-linejoin: miter"/>
   </g>
   <g id="patch_13">
    <path d="M 173.454545 384.48 
L 181.570909 384.48 
L 181.570909 382.901111 
L 173.454545 382.901111 
z
" clip-path="url(#p76d62e11e5)" style="fill: #1f77b4; fill-opacity: 0.75; stroke: #ffffff; stroke-width: 0.75; stroke-linejoin: miter"/>
   </g>
   <g id="patch_14">
    <path d="M 181.570909 384.48 
L 189.687273 384.48 
L 189.687273 383.265437 
L 181.570909 383.265437 
z
" clip-path="url(#p76d62e11e5)" style="fill: #1f77b4; fill-opacity: 0.75; stroke: #ffffff; stroke-width: 0.75; stroke-linejoin: miter"/>
   </g>
   <g id="patch_15">
    <path d="M 189.687273 384.48 
L 197.803636 384.48 
L 197.803636 383.587102 
L 189.687273 383.587102 
z
" clip-path="url(#p76d62e11e5)" style="fill: #1f77b4; fill-opacity: 0.75; stroke: #ffffff; stroke-width: 0.75; stroke-linejoin: miter"/>
   </g>
   <g id="patch_16">
    <path d="M 197.803636 384.48 
L 205.92 384.48 
L 205.92 383.711673 
L 197.803636 383.711673 
z
" clip-path="url(#p76d62e11e5)" style="fill: #1f77b4; fill-opacity: 0.75; stroke: #ffffff; stroke-width: 0.75; stroke-linejoin: miter"/>
   </g>
   <g id="patch_17">
    <path d="M 205.92 384.48 
L 214.036364 384.48 
L 214.036364 383.808513 
L 205.92 383.808513 
z
" clip-path="url(#p76d62e11e5)" style="fill: #1f77b4; fill-opacity: 0.75; stroke: #ffffff; stroke-width: 0.75; stroke-linejoin: miter"/>
   </g>
   <g id="patch_18">
    <path d="M 214.036364 384.48 
L 222.152727 384.48 
L 222.152727 383.88701 
L 214.036364 383.88701 
z
" clip-path="url(#p76d62e11e5)" style="fill: #1f77b4; fill-opacity: 0.75; stroke: #ffffff; stroke-width: 0.75; stroke-linejoin: miter"/>
   </g>
   <g id="patch_19">
    <path d="M 222.152727 384.48 
L 230.269091 384.48 
L 230.269091 383.471917 
L 222.152727 383.471917 
z
" clip-path="url(#p76d62e11e5)" style="fill: #1f77b4; fill-opacity: 0.75; stroke: #ffffff; stroke-width: 0.75; stroke-linejoin: miter"/>
   </g>
   <g id="patch_20">
    <path d="M 230.269091 384.48 
L 238.385455 384.48 
L 238.385455 382.989846 
L 230.269091 382.989846 
z
" clip-path="url(#p76d62e11e5)" style="fill: #1f77b4; fill-opacity: 0.75; stroke: #ffffff; stroke-width: 0.75; stroke-linejoin: miter"/>
   </g>
   <g id="patch_21">
    <path d="M 238.385455 384.48 
L 246.501818 384.48 
L 246.501818 383.682663 
L 238.385455 383.682663 
z
" clip-path="url(#p76d62e11e5)" style="fill: #1f77b4; fill-opacity: 0.75; stroke: #ffffff; stroke-width: 0.75; stroke-linejoin: miter"/>
   </g>
   <g id="patch_22">
    <path d="M 246.501818 384.48 
L 254.618182 384.48 
L 254.618182 384.360975 
L 246.501818 384.360975 
z
" clip-path="url(#p76d62e11e5)" style="fill: #1f77b4; fill-opacity: 0.75; stroke: #ffffff; stroke-width: 0.75; stroke-linejoin: miter"/>
   </g>
   <g id="patch_23">
    <path d="M 254.618182 384.48 
L 262.734545 384.48 
L 262.734545 384.463362 
L 254.618182 384.463362 
z
" clip-path="url(#p76d62e11e5)" style="fill: #1f77b4; fill-opacity: 0.75; stroke: #ffffff; stroke-width: 0.75; stroke-linejoin: miter"/>
   </g>
   <g id="patch_24">
    <path d="M 262.734545 384.48 
L 270.850909 384.48 
L 270.850909 384.474881 
L 262.734545 384.474881 
z
" clip-path="url(#p76d62e11e5)" style="fill: #1f77b4; fill-opacity: 0.75; stroke: #ffffff; stroke-width: 0.75; stroke-linejoin: miter"/>
   </g>
   <g id="patch_25">
    <path d="M 270.850909 384.48 
L 278.967273 384.48 
L 278.967273 384.474027 
L 270.850909 384.474027 
z
" clip-path="url(#p76d62e11e5)" style="fill: #1f77b4; fill-opacity: 0.75; stroke: #ffffff; stroke-width: 0.75; stroke-linejoin: miter"/>
   </g>
   <g id="patch_26">
    <path d="M 278.967273 384.48 
L 287.083636 384.48 
L 287.083636 384.476587 
L 278.967273 384.476587 
z
" clip-path="url(#p76d62e11e5)" style="fill: #1f77b4; fill-opacity: 0.75; stroke: #ffffff; stroke-width: 0.75; stroke-linejoin: miter"/>
   </g>
   <g id="patch_27">
    <path d="M 287.083636 384.48 
L 295.2 384.48 
L 295.2 384.47616 
L 287.083636 384.47616 
z
" clip-path="url(#p76d62e11e5)" style="fill: #1f77b4; fill-opacity: 0.75; stroke: #ffffff; stroke-width: 0.75; stroke-linejoin: miter"/>
   </g>
   <g id="patch_28">
    <path d="M 295.2 384.48 
L 303.316364 384.48 
L 303.316364 384.478294 
L 295.2 384.478294 
z
" clip-path="url(#p76d62e11e5)" style="fill: #1f77b4; fill-opacity: 0.75; stroke: #ffffff; stroke-width: 0.75; stroke-linejoin: miter"/>
   </g>
   <g id="patch_29">
    <path d="M 303.316364 384.48 
L 311.432727 384.48 
L 311.432727 384.477867 
L 303.316364 384.477867 
z
" clip-path="url(#p76d62e11e5)" style="fill: #1f77b4; fill-opacity: 0.75; stroke: #ffffff; stroke-width: 0.75; stroke-linejoin: miter"/>
   </g>
   <g id="patch_30">
    <path d="M 311.432727 384.48 
L 319.549091 384.48 
L 319.549091 384.478294 
L 311.432727 384.478294 
z
" clip-path="url(#p76d62e11e5)" style="fill: #1f77b4; fill-opacity: 0.75; stroke: #ffffff; stroke-width: 0.75; stroke-linejoin: miter"/>
   </g>
   <g id="patch_31">
    <path d="M 319.549091 384.48 
L 327.665455 384.48 
L 327.665455 384.48 
L 319.549091 384.48 
z
" clip-path="url(#p76d62e11e5)" style="fill: #1f77b4; fill-opacity: 0.75; stroke: #ffffff; stroke-width: 0.75; stroke-linejoin: miter"/>
   </g>
   <g id="patch_32">
    <path d="M 327.665455 384.48 
L 335.781818 384.48 
L 335.781818 384.48 
L 327.665455 384.48 
z
" clip-path="url(#p76d62e11e5)" style="fill: #1f77b4; fill-opacity: 0.75; stroke: #ffffff; stroke-width: 0.75; stroke-linejoin: miter"/>
   </g>
   <g id="patch_33">
    <path d="M 335.781818 384.48 
L 343.898182 384.48 
L 343.898182 384.48 
L 335.781818 384.48 
z
" clip-path="url(#p76d62e11e5)" style="fill: #1f77b4; fill-opacity: 0.75; stroke: #ffffff; stroke-width: 0.75; stroke-linejoin: miter"/>
   </g>
   <g id="patch_34">
    <path d="M 343.898182 384.48 
L 352.014545 384.48 
L 352.014545 384.48 
L 343.898182 384.48 
z
" clip-path="url(#p76d62e11e5)" style="fill: #1f77b4; fill-opacity: 0.75; stroke: #ffffff; stroke-width: 0.75; stroke-linejoin: miter"/>
   </g>
   <g id="patch_35">
    <path d="M 352.014545 384.48 
L 360.130909 384.48 
L 360.130909 384.48 
L 352.014545 384.48 
z
" clip-path="url(#p76d62e11e5)" style="fill: #1f77b4; fill-opacity: 0.75; stroke: #ffffff; stroke-width: 0.75; stroke-linejoin: miter"/>
   </g>
   <g id="patch_36">
    <path d="M 360.130909 384.48 
L 368.247273 384.48 
L 368.247273 384.48 
L 360.130909 384.48 
z
" clip-path="url(#p76d62e11e5)" style="fill: #1f77b4; fill-opacity: 0.75; stroke: #ffffff; stroke-width: 0.75; stroke-linejoin: miter"/>
   </g>
   <g id="patch_37">
    <path d="M 368.247273 384.48 
L 376.363636 384.48 
L 376.363636 384.48 
L 368.247273 384.48 
z
" clip-path="url(#p76d62e11e5)" style="fill: #1f77b4; fill-opacity: 0.75; stroke: #ffffff; stroke-width: 0.75; stroke-linejoin: miter"/>
   </g>
   <g id="patch_38">
    <path d="M 376.363636 384.48 
L 384.48 384.48 
L 384.48 384.48 
L 376.363636 384.48 
z
" clip-path="url(#p76d62e11e5)" style="fill: #1f77b4; fill-opacity: 0.75; stroke: #ffffff; stroke-width: 0.75; stroke-linejoin: miter"/>
   </g>
   <g id="patch_39">
    <path d="M 384.48 384.48 
L 392.596364 384.48 
L 392.596364 384.48 
L 384.48 384.48 
z
" clip-path="url(#p76d62e11e5)" style="fill: #1f77b4; fill-opacity: 0.75; stroke: #ffffff; stroke-width: 0.75; stroke-linejoin: miter"/>
   </g>
   <g id="patch_40">
    <path d="M 392.596364 384.48 
L 400.712727 384.48 
L 400.712727 384.48 
L 392.596364 384.48 
z
" clip-path="url(#p76d62e11e5)" style="fill: #1f77b4; fill-opacity: 0.75; stroke: #ffffff; stroke-width: 0.75; stroke-linejoin: miter"/>
   </g>
   <g id="patch_41">
    <path d="M 400.712727 384.48 
L 408.829091 384.48 
L 408.829091 384.48 
L 400.712727 384.48 
z
" clip-path="url(#p76d62e11e5)" style="fill: #1f77b4; fill-opacity: 0.75; stroke: #ffffff; stroke-width: 0.75; stroke-linejoin: miter"/>
   </g>
   <g id="patch_42">
    <path d="M 408.829091 384.48 
L 416.945455 384.48 
L 416.945455 384.48 
L 408.829091 384.48 
z
" clip-path="url(#p76d62e11e5)" style="fill: #1f77b4; fill-opacity: 0.75; stroke: #ffffff; stroke-width: 0.75; stroke-linejoin: miter"/>
   </g>
   <g id="patch_43">
    <path d="M 416.945455 384.48 
L 425.061818 384.48 
L 425.061818 384.48 
L 416.945455 384.48 
z
" clip-path="url(#p76d62e11e5)" style="fill: #1f77b4; fill-opacity: 0.75; stroke: #ffffff; stroke-width: 0.75; stroke-linejoin: miter"/>
   </g>
   <g id="patch_44">
    <path d="M 425.061818 384.48 
L 433.178182 384.48 
L 433.178182 384.48 
L 425.061818 384.48 
z
" clip-path="url(#p76d62e11e5)" style="fill: #1f77b4; fill-opacity: 0.75; stroke: #ffffff; stroke-width: 0.75; stroke-linejoin: miter"/>
   </g>
   <g id="patch_45">
    <path d="M 433.178182 384.48 
L 441.294545 384.48 
L 441.294545 384.48 
L 433.178182 384.48 
z
" clip-path="url(#p76d62e11e5)" style="fill: #1f77b4; fill-opacity: 0.75; stroke: #ffffff; stroke-width: 0.75; stroke-linejoin: miter"/>
   </g>
   <g id="patch_46">
    <path d="M 441.294545 384.48 
L 449.410909 384.48 
L 449.410909 384.48 
L 441.294545 384.48 
z
" clip-path="url(#p76d62e11e5)" style="fill: #1f77b4; fill-opacity: 0.75; stroke: #ffffff; stroke-width: 0.75; stroke-linejoin: miter"/>
   </g>
   <g id="patch_47">
    <path d="M 449.410909 384.48 
L 457.527273 384.48 
L 457.527273 384.48 
L 449.410909 384.48 
z
" clip-path="url(#p76d62e11e5)" style="fill: #1f77b4; fill-opacity: 0.75; stroke: #ffffff; stroke-width: 0.75; stroke-linejoin: miter"/>
   </g>
   <g id="patch_48">
    <path d="M 457.527273 384.48 
L 465.643636 384.48 
L 465.643636 384.48 
L 457.527273 384.48 
z
" clip-path="url(#p76d62e11e5)" style="fill: #1f77b4; fill-opacity: 0.75; stroke: #ffffff; stroke-width: 0.75; stroke-linejoin: miter"/>
   </g>
   <g id="patch_49">
    <path d="M 465.643636 384.48 
L 473.76 384.48 
L 473.76 384.48 
L 465.643636 384.48 
z
" clip-path="url(#p76d62e11e5)" style="fill: #1f77b4; fill-opacity: 0.75; stroke: #ffffff; stroke-width: 0.75; stroke-linejoin: miter"/>
   </g>
   <g id="patch_50">
    <path d="M 473.76 384.48 
L 481.876364 384.48 
L 481.876364 384.48 
L 473.76 384.48 
z
" clip-path="url(#p76d62e11e5)" style="fill: #1f77b4; fill-opacity: 0.75; stroke: #ffffff; stroke-width: 0.75; stroke-linejoin: miter"/>
   </g>
   <g id="patch_51">
    <path d="M 481.876364 384.48 
L 489.992727 384.48 
L 489.992727 384.48 
L 481.876364 384.48 
z
" clip-path="url(#p76d62e11e5)" style="fill: #1f77b4; fill-opacity: 0.75; stroke: #ffffff; stroke-width: 0.75; stroke-linejoin: miter"/>
   </g>
   <g id="patch_52">
    <path d="M 489.992727 384.48 
L 498.109091 384.48 
L 498.109091 384.478294 
L 489.992727 384.478294 
z
" clip-path="url(#p76d62e11e5)" style="fill: #1f77b4; fill-opacity: 0.75; stroke: #ffffff; stroke-width: 0.75; stroke-linejoin: miter"/>
   </g>
   <g id="matplotlib.axis_1">
    <g id="xtick_1">
     <g id="line2d_1">
      <path d="M 92.19673 384.48 
L 92.19673 51.84 
" clip-path="url(#p76d62e11e5)" style="fill: none; stroke: #b0b0b0; stroke-width: 0.8; stroke-linecap: square"/>
     </g>
     <g id="line2d_2">
      <defs>
       <path id="md538b81cb6" d="M 0 0 
L 0 3.5 
" style="stroke: #000000; stroke-width: 0.8"/>
      </defs>
      <g>
       <use xlink:href="#md538b81cb6" x="92.19673" y="384.48" style="stroke: #000000; stroke-width: 0.8"/>
      </g>
     </g>
     <g id="text_1">
      <!-- 0 -->
      <g transform="translate(88.717824 399.078438) scale(0.1 -0.1)">
       <defs>
        <path id="DejaVuSans-Bold-30" d="M 2944 2338 
Q 2944 3213 2780 3570 
Q 2616 3928 2228 3928 
Q 1841 3928 1675 3570 
Q 1509 3213 1509 2338 
Q 1509 1453 1675 1090 
Q 1841 728 2228 728 
Q 2613 728 2778 1090 
Q 2944 1453 2944 2338 
z
M 4147 2328 
Q 4147 1169 3647 539 
Q 3147 -91 2228 -91 
Q 1306 -91 806 539 
Q 306 1169 306 2328 
Q 306 3491 806 4120 
Q 1306 4750 2228 4750 
Q 3147 4750 3647 4120 
Q 4147 3491 4147 2328 
z
" transform="scale(0.015625)"/>
       </defs>
       <use xlink:href="#DejaVuSans-Bold-30"/>
      </g>
     </g>
    </g>
    <g id="xtick_2">
     <g id="line2d_3">
      <path d="M 186.375932 384.48 
L 186.375932 51.84 
" clip-path="url(#p76d62e11e5)" style="fill: none; stroke: #b0b0b0; stroke-width: 0.8; stroke-linecap: square"/>
     </g>
     <g id="line2d_4">
      <g>
       <use xlink:href="#md538b81cb6" x="186.375932" y="384.48" style="stroke: #000000; stroke-width: 0.8"/>
      </g>
     </g>
     <g id="text_2">
      <!-- 1000 -->
      <g transform="translate(172.460307 399.078438) scale(0.1 -0.1)">
       <defs>
        <path id="DejaVuSans-Bold-31" d="M 750 831 
L 1813 831 
L 1813 3847 
L 722 3622 
L 722 4441 
L 1806 4666 
L 2950 4666 
L 2950 831 
L 4013 831 
L 4013 0 
L 750 0 
L 750 831 
z
" transform="scale(0.015625)"/>
       </defs>
       <use xlink:href="#DejaVuSans-Bold-31"/>
       <use xlink:href="#DejaVuSans-Bold-30" x="69.580078"/>
       <use xlink:href="#DejaVuSans-Bold-30" x="139.160156"/>
       <use xlink:href="#DejaVuSans-Bold-30" x="208.740234"/>
      </g>
     </g>
    </g>
    <g id="xtick_3">
     <g id="line2d_5">
      <path d="M 280.555134 384.48 
L 280.555134 51.84 
" clip-path="url(#p76d62e11e5)" style="fill: none; stroke: #b0b0b0; stroke-width: 0.8; stroke-linecap: square"/>
     </g>
     <g id="line2d_6">
      <g>
       <use xlink:href="#md538b81cb6" x="280.555134" y="384.48" style="stroke: #000000; stroke-width: 0.8"/>
      </g>
     </g>
     <g id="text_3">
      <!-- 2000 -->
      <g transform="translate(266.639509 399.078438) scale(0.1 -0.1)">
       <defs>
        <path id="DejaVuSans-Bold-32" d="M 1844 884 
L 3897 884 
L 3897 0 
L 506 0 
L 506 884 
L 2209 2388 
Q 2438 2594 2547 2791 
Q 2656 2988 2656 3200 
Q 2656 3528 2436 3728 
Q 2216 3928 1850 3928 
Q 1569 3928 1234 3808 
Q 900 3688 519 3450 
L 519 4475 
Q 925 4609 1322 4679 
Q 1719 4750 2100 4750 
Q 2938 4750 3402 4381 
Q 3866 4013 3866 3353 
Q 3866 2972 3669 2642 
Q 3472 2313 2841 1759 
L 1844 884 
z
" transform="scale(0.015625)"/>
       </defs>
       <use xlink:href="#DejaVuSans-Bold-32"/>
       <use xlink:href="#DejaVuSans-Bold-30" x="69.580078"/>
       <use xlink:href="#DejaVuSans-Bold-30" x="139.160156"/>
       <use xlink:href="#DejaVuSans-Bold-30" x="208.740234"/>
      </g>
     </g>
    </g>
    <g id="xtick_4">
     <g id="line2d_7">
      <path d="M 374.734336 384.48 
L 374.734336 51.84 
" clip-path="url(#p76d62e11e5)" style="fill: none; stroke: #b0b0b0; stroke-width: 0.8; stroke-linecap: square"/>
     </g>
     <g id="line2d_8">
      <g>
       <use xlink:href="#md538b81cb6" x="374.734336" y="384.48" style="stroke: #000000; stroke-width: 0.8"/>
      </g>
     </g>
     <g id="text_4">
      <!-- 3000 -->
      <g transform="translate(360.818711 399.078438) scale(0.1 -0.1)">
       <defs>
        <path id="DejaVuSans-Bold-33" d="M 2981 2516 
Q 3453 2394 3698 2092 
Q 3944 1791 3944 1325 
Q 3944 631 3412 270 
Q 2881 -91 1863 -91 
Q 1503 -91 1142 -33 
Q 781 25 428 141 
L 428 1069 
Q 766 900 1098 814 
Q 1431 728 1753 728 
Q 2231 728 2486 893 
Q 2741 1059 2741 1369 
Q 2741 1688 2480 1852 
Q 2219 2016 1709 2016 
L 1228 2016 
L 1228 2791 
L 1734 2791 
Q 2188 2791 2409 2933 
Q 2631 3075 2631 3366 
Q 2631 3634 2415 3781 
Q 2200 3928 1806 3928 
Q 1516 3928 1219 3862 
Q 922 3797 628 3669 
L 628 4550 
Q 984 4650 1334 4700 
Q 1684 4750 2022 4750 
Q 2931 4750 3382 4451 
Q 3834 4153 3834 3553 
Q 3834 3144 3618 2883 
Q 3403 2622 2981 2516 
z
" transform="scale(0.015625)"/>
       </defs>
       <use xlink:href="#DejaVuSans-Bold-33"/>
       <use xlink:href="#DejaVuSans-Bold-30" x="69.580078"/>
       <use xlink:href="#DejaVuSans-Bold-30" x="139.160156"/>
       <use xlink:href="#DejaVuSans-Bold-30" x="208.740234"/>
      </g>
     </g>
    </g>
    <g id="xtick_5">
     <g id="line2d_9">
      <path d="M 468.913538 384.48 
L 468.913538 51.84 
" clip-path="url(#p76d62e11e5)" style="fill: none; stroke: #b0b0b0; stroke-width: 0.8; stroke-linecap: square"/>
     </g>
     <g id="line2d_10">
      <g>
       <use xlink:href="#md538b81cb6" x="468.913538" y="384.48" style="stroke: #000000; stroke-width: 0.8"/>
      </g>
     </g>
     <g id="text_5">
      <!-- 4000 -->
      <g transform="translate(454.997913 399.078438) scale(0.1 -0.1)">
       <defs>
        <path id="DejaVuSans-Bold-34" d="M 2356 3675 
L 1038 1722 
L 2356 1722 
L 2356 3675 
z
M 2156 4666 
L 3494 4666 
L 3494 1722 
L 4159 1722 
L 4159 850 
L 3494 850 
L 3494 0 
L 2356 0 
L 2356 850 
L 288 850 
L 288 1881 
L 2156 4666 
z
" transform="scale(0.015625)"/>
       </defs>
       <use xlink:href="#DejaVuSans-Bold-34"/>
       <use xlink:href="#DejaVuSans-Bold-30" x="69.580078"/>
       <use xlink:href="#DejaVuSans-Bold-30" x="139.160156"/>
       <use xlink:href="#DejaVuSans-Bold-30" x="208.740234"/>
      </g>
     </g>
    </g>
   </g>
   <g id="matplotlib.axis_2">
    <g id="ytick_1">
     <g id="line2d_11">
      <path d="M 72 384.48 
L 518.4 384.48 
" clip-path="url(#p76d62e11e5)" style="fill: none; stroke: #b0b0b0; stroke-width: 0.8; stroke-linecap: square"/>
     </g>
     <g id="line2d_12">
      <defs>
       <path id="mbb005aee67" d="M 0 0 
L -3.5 0 
" style="stroke: #000000; stroke-width: 0.8"/>
      </defs>
      <g>
       <use xlink:href="#mbb005aee67" x="72" y="384.48" style="stroke: #000000; stroke-width: 0.8"/>
      </g>
     </g>
     <g id="text_6">
      <!-- 0 -->
      <g transform="translate(58.042187 388.279219) scale(0.1 -0.1)">
       <use xlink:href="#DejaVuSans-Bold-30"/>
      </g>
     </g>
    </g>
    <g id="ytick_2">
     <g id="line2d_13">
      <path d="M 72 341.818849 
L 518.4 341.818849 
" clip-path="url(#p76d62e11e5)" style="fill: none; stroke: #b0b0b0; stroke-width: 0.8; stroke-linecap: square"/>
     </g>
     <g id="line2d_14">
      <g>
       <use xlink:href="#mbb005aee67" x="72" y="341.818849" style="stroke: #000000; stroke-width: 0.8"/>
      </g>
     </g>
     <g id="text_7">
      <!-- 100000 -->
      <g transform="translate(23.253125 345.618068) scale(0.1 -0.1)">
       <use xlink:href="#DejaVuSans-Bold-31"/>
       <use xlink:href="#DejaVuSans-Bold-30" x="69.580078"/>
       <use xlink:href="#DejaVuSans-Bold-30" x="139.160156"/>
       <use xlink:href="#DejaVuSans-Bold-30" x="208.740234"/>
       <use xlink:href="#DejaVuSans-Bold-30" x="278.320312"/>
       <use xlink:href="#DejaVuSans-Bold-30" x="347.900391"/>
      </g>
     </g>
    </g>
    <g id="ytick_3">
     <g id="line2d_15">
      <path d="M 72 299.157698 
L 518.4 299.157698 
" clip-path="url(#p76d62e11e5)" style="fill: none; stroke: #b0b0b0; stroke-width: 0.8; stroke-linecap: square"/>
     </g>
     <g id="line2d_16">
      <g>
       <use xlink:href="#mbb005aee67" x="72" y="299.157698" style="stroke: #000000; stroke-width: 0.8"/>
      </g>
     </g>
     <g id="text_8">
      <!-- 200000 -->
      <g transform="translate(23.253125 302.956917) scale(0.1 -0.1)">
       <use xlink:href="#DejaVuSans-Bold-32"/>
       <use xlink:href="#DejaVuSans-Bold-30" x="69.580078"/>
       <use xlink:href="#DejaVuSans-Bold-30" x="139.160156"/>
       <use xlink:href="#DejaVuSans-Bold-30" x="208.740234"/>
       <use xlink:href="#DejaVuSans-Bold-30" x="278.320312"/>
       <use xlink:href="#DejaVuSans-Bold-30" x="347.900391"/>
      </g>
     </g>
    </g>
    <g id="ytick_4">
     <g id="line2d_17">
      <path d="M 72 256.496547 
L 518.4 256.496547 
" clip-path="url(#p76d62e11e5)" style="fill: none; stroke: #b0b0b0; stroke-width: 0.8; stroke-linecap: square"/>
     </g>
     <g id="line2d_18">
      <g>
       <use xlink:href="#mbb005aee67" x="72" y="256.496547" style="stroke: #000000; stroke-width: 0.8"/>
      </g>
     </g>
     <g id="text_9">
      <!-- 300000 -->
      <g transform="translate(23.253125 260.295766) scale(0.1 -0.1)">
       <use xlink:href="#DejaVuSans-Bold-33"/>
       <use xlink:href="#DejaVuSans-Bold-30" x="69.580078"/>
       <use xlink:href="#DejaVuSans-Bold-30" x="139.160156"/>
       <use xlink:href="#DejaVuSans-Bold-30" x="208.740234"/>
       <use xlink:href="#DejaVuSans-Bold-30" x="278.320312"/>
       <use xlink:href="#DejaVuSans-Bold-30" x="347.900391"/>
      </g>
     </g>
    </g>
    <g id="ytick_5">
     <g id="line2d_19">
      <path d="M 72 213.835396 
L 518.4 213.835396 
" clip-path="url(#p76d62e11e5)" style="fill: none; stroke: #b0b0b0; stroke-width: 0.8; stroke-linecap: square"/>
     </g>
     <g id="line2d_20">
      <g>
       <use xlink:href="#mbb005aee67" x="72" y="213.835396" style="stroke: #000000; stroke-width: 0.8"/>
      </g>
     </g>
     <g id="text_10">
      <!-- 400000 -->
      <g transform="translate(23.253125 217.634615) scale(0.1 -0.1)">
       <use xlink:href="#DejaVuSans-Bold-34"/>
       <use xlink:href="#DejaVuSans-Bold-30" x="69.580078"/>
       <use xlink:href="#DejaVuSans-Bold-30" x="139.160156"/>
       <use xlink:href="#DejaVuSans-Bold-30" x="208.740234"/>
       <use xlink:href="#DejaVuSans-Bold-30" x="278.320312"/>
       <use xlink:href="#DejaVuSans-Bold-30" x="347.900391"/>
      </g>
     </g>
    </g>
    <g id="ytick_6">
     <g id="line2d_21">
      <path d="M 72 171.174246 
L 518.4 171.174246 
" clip-path="url(#p76d62e11e5)" style="fill: none; stroke: #b0b0b0; stroke-width: 0.8; stroke-linecap: square"/>
     </g>
     <g id="line2d_22">
      <g>
       <use xlink:href="#mbb005aee67" x="72" y="171.174246" style="stroke: #000000; stroke-width: 0.8"/>
      </g>
     </g>
     <g id="text_11">
      <!-- 500000 -->
      <g transform="translate(23.253125 174.973464) scale(0.1 -0.1)">
       <defs>
        <path id="DejaVuSans-Bold-35" d="M 678 4666 
L 3669 4666 
L 3669 3781 
L 1638 3781 
L 1638 3059 
Q 1775 3097 1914 3117 
Q 2053 3138 2203 3138 
Q 3056 3138 3531 2711 
Q 4006 2284 4006 1522 
Q 4006 766 3489 337 
Q 2972 -91 2053 -91 
Q 1656 -91 1267 -14 
Q 878 63 494 219 
L 494 1166 
Q 875 947 1217 837 
Q 1559 728 1863 728 
Q 2300 728 2551 942 
Q 2803 1156 2803 1522 
Q 2803 1891 2551 2103 
Q 2300 2316 1863 2316 
Q 1603 2316 1309 2248 
Q 1016 2181 678 2041 
L 678 4666 
z
" transform="scale(0.015625)"/>
       </defs>
       <use xlink:href="#DejaVuSans-Bold-35"/>
       <use xlink:href="#DejaVuSans-Bold-30" x="69.580078"/>
       <use xlink:href="#DejaVuSans-Bold-30" x="139.160156"/>
       <use xlink:href="#DejaVuSans-Bold-30" x="208.740234"/>
       <use xlink:href="#DejaVuSans-Bold-30" x="278.320312"/>
       <use xlink:href="#DejaVuSans-Bold-30" x="347.900391"/>
      </g>
     </g>
    </g>
    <g id="ytick_7">
     <g id="line2d_23">
      <path d="M 72 128.513095 
L 518.4 128.513095 
" clip-path="url(#p76d62e11e5)" style="fill: none; stroke: #b0b0b0; stroke-width: 0.8; stroke-linecap: square"/>
     </g>
     <g id="line2d_24">
      <g>
       <use xlink:href="#mbb005aee67" x="72" y="128.513095" style="stroke: #000000; stroke-width: 0.8"/>
      </g>
     </g>
     <g id="text_12">
      <!-- 600000 -->
      <g transform="translate(23.253125 132.312313) scale(0.1 -0.1)">
       <defs>
        <path id="DejaVuSans-Bold-36" d="M 2316 2303 
Q 2000 2303 1842 2098 
Q 1684 1894 1684 1484 
Q 1684 1075 1842 870 
Q 2000 666 2316 666 
Q 2634 666 2792 870 
Q 2950 1075 2950 1484 
Q 2950 1894 2792 2098 
Q 2634 2303 2316 2303 
z
M 3803 4544 
L 3803 3681 
Q 3506 3822 3243 3889 
Q 2981 3956 2731 3956 
Q 2194 3956 1894 3657 
Q 1594 3359 1544 2772 
Q 1750 2925 1990 3001 
Q 2231 3078 2516 3078 
Q 3231 3078 3670 2659 
Q 4109 2241 4109 1563 
Q 4109 813 3618 361 
Q 3128 -91 2303 -91 
Q 1394 -91 895 523 
Q 397 1138 397 2266 
Q 397 3422 980 4083 
Q 1563 4744 2578 4744 
Q 2900 4744 3203 4694 
Q 3506 4644 3803 4544 
z
" transform="scale(0.015625)"/>
       </defs>
       <use xlink:href="#DejaVuSans-Bold-36"/>
       <use xlink:href="#DejaVuSans-Bold-30" x="69.580078"/>
       <use xlink:href="#DejaVuSans-Bold-30" x="139.160156"/>
       <use xlink:href="#DejaVuSans-Bold-30" x="208.740234"/>
       <use xlink:href="#DejaVuSans-Bold-30" x="278.320312"/>
       <use xlink:href="#DejaVuSans-Bold-30" x="347.900391"/>
      </g>
     </g>
    </g>
    <g id="ytick_8">
     <g id="line2d_25">
      <path d="M 72 85.851944 
L 518.4 85.851944 
" clip-path="url(#p76d62e11e5)" style="fill: none; stroke: #b0b0b0; stroke-width: 0.8; stroke-linecap: square"/>
     </g>
     <g id="line2d_26">
      <g>
       <use xlink:href="#mbb005aee67" x="72" y="85.851944" style="stroke: #000000; stroke-width: 0.8"/>
      </g>
     </g>
     <g id="text_13">
      <!-- 700000 -->
      <g transform="translate(23.253125 89.651163) scale(0.1 -0.1)">
       <defs>
        <path id="DejaVuSans-Bold-37" d="M 428 4666 
L 3944 4666 
L 3944 3988 
L 2125 0 
L 953 0 
L 2675 3781 
L 428 3781 
L 428 4666 
z
" transform="scale(0.015625)"/>
       </defs>
       <use xlink:href="#DejaVuSans-Bold-37"/>
       <use xlink:href="#DejaVuSans-Bold-30" x="69.580078"/>
       <use xlink:href="#DejaVuSans-Bold-30" x="139.160156"/>
       <use xlink:href="#DejaVuSans-Bold-30" x="208.740234"/>
       <use xlink:href="#DejaVuSans-Bold-30" x="278.320312"/>
       <use xlink:href="#DejaVuSans-Bold-30" x="347.900391"/>
      </g>
     </g>
    </g>
   </g>
   <g id="patch_53">
    <path d="M 72 384.48 
L 72 51.84 
" style="fill: none; stroke: #000000; stroke-width: 0.8; stroke-linejoin: miter; stroke-linecap: square"/>
   </g>
   <g id="patch_54">
    <path d="M 72 384.48 
L 518.4 384.48 
" style="fill: none; stroke: #000000; stroke-width: 0.8; stroke-linejoin: miter; stroke-linecap: square"/>
   </g>
   <g id="text_14">
    <!-- Distribution of abstact lengths for Semantic Scholar dataset -->
    <g transform="translate(73.518516 45.84) scale(0.13 -0.13)">
     <defs>
      <path id="DejaVuSans-Bold-44" d="M 1791 3756 
L 1791 909 
L 2222 909 
Q 2959 909 3348 1275 
Q 3738 1641 3738 2338 
Q 3738 3031 3350 3393 
Q 2963 3756 2222 3756 
L 1791 3756 
z
M 588 4666 
L 1856 4666 
Q 2919 4666 3439 4514 
Q 3959 4363 4331 4000 
Q 4659 3684 4818 3271 
Q 4978 2859 4978 2338 
Q 4978 1809 4818 1395 
Q 4659 981 4331 666 
Q 3956 303 3431 151 
Q 2906 0 1856 0 
L 588 0 
L 588 4666 
z
" transform="scale(0.015625)"/>
      <path id="DejaVuSans-Bold-69" d="M 538 3500 
L 1656 3500 
L 1656 0 
L 538 0 
L 538 3500 
z
M 538 4863 
L 1656 4863 
L 1656 3950 
L 538 3950 
L 538 4863 
z
" transform="scale(0.015625)"/>
      <path id="DejaVuSans-Bold-73" d="M 3272 3391 
L 3272 2541 
Q 2913 2691 2578 2766 
Q 2244 2841 1947 2841 
Q 1628 2841 1473 2761 
Q 1319 2681 1319 2516 
Q 1319 2381 1436 2309 
Q 1553 2238 1856 2203 
L 2053 2175 
Q 2913 2066 3209 1816 
Q 3506 1566 3506 1031 
Q 3506 472 3093 190 
Q 2681 -91 1863 -91 
Q 1516 -91 1145 -36 
Q 775 19 384 128 
L 384 978 
Q 719 816 1070 734 
Q 1422 653 1784 653 
Q 2113 653 2278 743 
Q 2444 834 2444 1013 
Q 2444 1163 2330 1236 
Q 2216 1309 1875 1350 
L 1678 1375 
Q 931 1469 631 1722 
Q 331 1975 331 2491 
Q 331 3047 712 3315 
Q 1094 3584 1881 3584 
Q 2191 3584 2531 3537 
Q 2872 3491 3272 3391 
z
" transform="scale(0.015625)"/>
      <path id="DejaVuSans-Bold-74" d="M 1759 4494 
L 1759 3500 
L 2913 3500 
L 2913 2700 
L 1759 2700 
L 1759 1216 
Q 1759 972 1856 886 
Q 1953 800 2241 800 
L 2816 800 
L 2816 0 
L 1856 0 
Q 1194 0 917 276 
Q 641 553 641 1216 
L 641 2700 
L 84 2700 
L 84 3500 
L 641 3500 
L 641 4494 
L 1759 4494 
z
" transform="scale(0.015625)"/>
      <path id="DejaVuSans-Bold-72" d="M 3138 2547 
Q 2991 2616 2845 2648 
Q 2700 2681 2553 2681 
Q 2122 2681 1889 2404 
Q 1656 2128 1656 1613 
L 1656 0 
L 538 0 
L 538 3500 
L 1656 3500 
L 1656 2925 
Q 1872 3269 2151 3426 
Q 2431 3584 2822 3584 
Q 2878 3584 2943 3579 
Q 3009 3575 3134 3559 
L 3138 2547 
z
" transform="scale(0.015625)"/>
      <path id="DejaVuSans-Bold-62" d="M 2400 722 
Q 2759 722 2948 984 
Q 3138 1247 3138 1747 
Q 3138 2247 2948 2509 
Q 2759 2772 2400 2772 
Q 2041 2772 1848 2508 
Q 1656 2244 1656 1747 
Q 1656 1250 1848 986 
Q 2041 722 2400 722 
z
M 1656 2988 
Q 1888 3294 2169 3439 
Q 2450 3584 2816 3584 
Q 3463 3584 3878 3070 
Q 4294 2556 4294 1747 
Q 4294 938 3878 423 
Q 3463 -91 2816 -91 
Q 2450 -91 2169 54 
Q 1888 200 1656 506 
L 1656 0 
L 538 0 
L 538 4863 
L 1656 4863 
L 1656 2988 
z
" transform="scale(0.015625)"/>
      <path id="DejaVuSans-Bold-75" d="M 500 1363 
L 500 3500 
L 1625 3500 
L 1625 3150 
Q 1625 2866 1622 2436 
Q 1619 2006 1619 1863 
Q 1619 1441 1641 1255 
Q 1663 1069 1716 984 
Q 1784 875 1895 815 
Q 2006 756 2150 756 
Q 2500 756 2700 1025 
Q 2900 1294 2900 1772 
L 2900 3500 
L 4019 3500 
L 4019 0 
L 2900 0 
L 2900 506 
Q 2647 200 2364 54 
Q 2081 -91 1741 -91 
Q 1134 -91 817 281 
Q 500 653 500 1363 
z
" transform="scale(0.015625)"/>
      <path id="DejaVuSans-Bold-6f" d="M 2203 2784 
Q 1831 2784 1636 2517 
Q 1441 2250 1441 1747 
Q 1441 1244 1636 976 
Q 1831 709 2203 709 
Q 2569 709 2762 976 
Q 2956 1244 2956 1747 
Q 2956 2250 2762 2517 
Q 2569 2784 2203 2784 
z
M 2203 3584 
Q 3106 3584 3614 3096 
Q 4122 2609 4122 1747 
Q 4122 884 3614 396 
Q 3106 -91 2203 -91 
Q 1297 -91 786 396 
Q 275 884 275 1747 
Q 275 2609 786 3096 
Q 1297 3584 2203 3584 
z
" transform="scale(0.015625)"/>
      <path id="DejaVuSans-Bold-6e" d="M 4056 2131 
L 4056 0 
L 2931 0 
L 2931 347 
L 2931 1631 
Q 2931 2084 2911 2256 
Q 2891 2428 2841 2509 
Q 2775 2619 2662 2680 
Q 2550 2741 2406 2741 
Q 2056 2741 1856 2470 
Q 1656 2200 1656 1722 
L 1656 0 
L 538 0 
L 538 3500 
L 1656 3500 
L 1656 2988 
Q 1909 3294 2193 3439 
Q 2478 3584 2822 3584 
Q 3428 3584 3742 3212 
Q 4056 2841 4056 2131 
z
" transform="scale(0.015625)"/>
      <path id="DejaVuSans-Bold-20" transform="scale(0.015625)"/>
      <path id="DejaVuSans-Bold-66" d="M 2841 4863 
L 2841 4128 
L 2222 4128 
Q 1984 4128 1890 4042 
Q 1797 3956 1797 3744 
L 1797 3500 
L 2753 3500 
L 2753 2700 
L 1797 2700 
L 1797 0 
L 678 0 
L 678 2700 
L 122 2700 
L 122 3500 
L 678 3500 
L 678 3744 
Q 678 4316 997 4589 
Q 1316 4863 1984 4863 
L 2841 4863 
z
" transform="scale(0.015625)"/>
      <path id="DejaVuSans-Bold-61" d="M 2106 1575 
Q 1756 1575 1579 1456 
Q 1403 1338 1403 1106 
Q 1403 894 1545 773 
Q 1688 653 1941 653 
Q 2256 653 2472 879 
Q 2688 1106 2688 1447 
L 2688 1575 
L 2106 1575 
z
M 3816 1997 
L 3816 0 
L 2688 0 
L 2688 519 
Q 2463 200 2181 54 
Q 1900 -91 1497 -91 
Q 953 -91 614 226 
Q 275 544 275 1050 
Q 275 1666 698 1953 
Q 1122 2241 2028 2241 
L 2688 2241 
L 2688 2328 
Q 2688 2594 2478 2717 
Q 2269 2841 1825 2841 
Q 1466 2841 1156 2769 
Q 847 2697 581 2553 
L 581 3406 
Q 941 3494 1303 3539 
Q 1666 3584 2028 3584 
Q 2975 3584 3395 3211 
Q 3816 2838 3816 1997 
z
" transform="scale(0.015625)"/>
      <path id="DejaVuSans-Bold-63" d="M 3366 3391 
L 3366 2478 
Q 3138 2634 2908 2709 
Q 2678 2784 2431 2784 
Q 1963 2784 1702 2511 
Q 1441 2238 1441 1747 
Q 1441 1256 1702 982 
Q 1963 709 2431 709 
Q 2694 709 2930 787 
Q 3166 866 3366 1019 
L 3366 103 
Q 3103 6 2833 -42 
Q 2563 -91 2291 -91 
Q 1344 -91 809 395 
Q 275 881 275 1747 
Q 275 2613 809 3098 
Q 1344 3584 2291 3584 
Q 2566 3584 2833 3536 
Q 3100 3488 3366 3391 
z
" transform="scale(0.015625)"/>
      <path id="DejaVuSans-Bold-6c" d="M 538 4863 
L 1656 4863 
L 1656 0 
L 538 0 
L 538 4863 
z
" transform="scale(0.015625)"/>
      <path id="DejaVuSans-Bold-65" d="M 4031 1759 
L 4031 1441 
L 1416 1441 
Q 1456 1047 1700 850 
Q 1944 653 2381 653 
Q 2734 653 3104 758 
Q 3475 863 3866 1075 
L 3866 213 
Q 3469 63 3072 -14 
Q 2675 -91 2278 -91 
Q 1328 -91 801 392 
Q 275 875 275 1747 
Q 275 2603 792 3093 
Q 1309 3584 2216 3584 
Q 3041 3584 3536 3087 
Q 4031 2591 4031 1759 
z
M 2881 2131 
Q 2881 2450 2695 2645 
Q 2509 2841 2209 2841 
Q 1884 2841 1681 2658 
Q 1478 2475 1428 2131 
L 2881 2131 
z
" transform="scale(0.015625)"/>
      <path id="DejaVuSans-Bold-67" d="M 2919 594 
Q 2688 288 2409 144 
Q 2131 0 1766 0 
Q 1125 0 706 504 
Q 288 1009 288 1791 
Q 288 2575 706 3076 
Q 1125 3578 1766 3578 
Q 2131 3578 2409 3434 
Q 2688 3291 2919 2981 
L 2919 3500 
L 4044 3500 
L 4044 353 
Q 4044 -491 3511 -936 
Q 2978 -1381 1966 -1381 
Q 1638 -1381 1331 -1331 
Q 1025 -1281 716 -1178 
L 716 -306 
Q 1009 -475 1290 -558 
Q 1572 -641 1856 -641 
Q 2406 -641 2662 -400 
Q 2919 -159 2919 353 
L 2919 594 
z
M 2181 2772 
Q 1834 2772 1640 2515 
Q 1447 2259 1447 1791 
Q 1447 1309 1634 1061 
Q 1822 813 2181 813 
Q 2531 813 2725 1069 
Q 2919 1325 2919 1791 
Q 2919 2259 2725 2515 
Q 2531 2772 2181 2772 
z
" transform="scale(0.015625)"/>
      <path id="DejaVuSans-Bold-68" d="M 4056 2131 
L 4056 0 
L 2931 0 
L 2931 347 
L 2931 1625 
Q 2931 2084 2911 2256 
Q 2891 2428 2841 2509 
Q 2775 2619 2662 2680 
Q 2550 2741 2406 2741 
Q 2056 2741 1856 2470 
Q 1656 2200 1656 1722 
L 1656 0 
L 538 0 
L 538 4863 
L 1656 4863 
L 1656 2988 
Q 1909 3294 2193 3439 
Q 2478 3584 2822 3584 
Q 3428 3584 3742 3212 
Q 4056 2841 4056 2131 
z
" transform="scale(0.015625)"/>
      <path id="DejaVuSans-Bold-53" d="M 3834 4519 
L 3834 3531 
Q 3450 3703 3084 3790 
Q 2719 3878 2394 3878 
Q 1963 3878 1756 3759 
Q 1550 3641 1550 3391 
Q 1550 3203 1689 3098 
Q 1828 2994 2194 2919 
L 2706 2816 
Q 3484 2659 3812 2340 
Q 4141 2022 4141 1434 
Q 4141 663 3683 286 
Q 3225 -91 2284 -91 
Q 1841 -91 1394 -6 
Q 947 78 500 244 
L 500 1259 
Q 947 1022 1364 901 
Q 1781 781 2169 781 
Q 2563 781 2772 912 
Q 2981 1044 2981 1288 
Q 2981 1506 2839 1625 
Q 2697 1744 2272 1838 
L 1806 1941 
Q 1106 2091 782 2419 
Q 459 2747 459 3303 
Q 459 4000 909 4375 
Q 1359 4750 2203 4750 
Q 2588 4750 2994 4692 
Q 3400 4634 3834 4519 
z
" transform="scale(0.015625)"/>
      <path id="DejaVuSans-Bold-6d" d="M 3781 2919 
Q 3994 3244 4286 3414 
Q 4578 3584 4928 3584 
Q 5531 3584 5847 3212 
Q 6163 2841 6163 2131 
L 6163 0 
L 5038 0 
L 5038 1825 
Q 5041 1866 5042 1909 
Q 5044 1953 5044 2034 
Q 5044 2406 4934 2573 
Q 4825 2741 4581 2741 
Q 4263 2741 4089 2478 
Q 3916 2216 3909 1719 
L 3909 0 
L 2784 0 
L 2784 1825 
Q 2784 2406 2684 2573 
Q 2584 2741 2328 2741 
Q 2006 2741 1831 2477 
Q 1656 2213 1656 1722 
L 1656 0 
L 531 0 
L 531 3500 
L 1656 3500 
L 1656 2988 
Q 1863 3284 2130 3434 
Q 2397 3584 2719 3584 
Q 3081 3584 3359 3409 
Q 3638 3234 3781 2919 
z
" transform="scale(0.015625)"/>
      <path id="DejaVuSans-Bold-64" d="M 2919 2988 
L 2919 4863 
L 4044 4863 
L 4044 0 
L 2919 0 
L 2919 506 
Q 2688 197 2409 53 
Q 2131 -91 1766 -91 
Q 1119 -91 703 423 
Q 288 938 288 1747 
Q 288 2556 703 3070 
Q 1119 3584 1766 3584 
Q 2128 3584 2408 3439 
Q 2688 3294 2919 2988 
z
M 2181 722 
Q 2541 722 2730 984 
Q 2919 1247 2919 1747 
Q 2919 2247 2730 2509 
Q 2541 2772 2181 2772 
Q 1825 2772 1636 2509 
Q 1447 2247 1447 1747 
Q 1447 1247 1636 984 
Q 1825 722 2181 722 
z
" transform="scale(0.015625)"/>
     </defs>
     <use xlink:href="#DejaVuSans-Bold-44"/>
     <use xlink:href="#DejaVuSans-Bold-69" x="83.007812"/>
     <use xlink:href="#DejaVuSans-Bold-73" x="117.285156"/>
     <use xlink:href="#DejaVuSans-Bold-74" x="176.806641"/>
     <use xlink:href="#DejaVuSans-Bold-72" x="224.609375"/>
     <use xlink:href="#DejaVuSans-Bold-69" x="273.925781"/>
     <use xlink:href="#DejaVuSans-Bold-62" x="308.203125"/>
     <use xlink:href="#DejaVuSans-Bold-75" x="379.785156"/>
     <use xlink:href="#DejaVuSans-Bold-74" x="450.976562"/>
     <use xlink:href="#DejaVuSans-Bold-69" x="498.779297"/>
     <use xlink:href="#DejaVuSans-Bold-6f" x="533.056641"/>
     <use xlink:href="#DejaVuSans-Bold-6e" x="601.757812"/>
     <use xlink:href="#DejaVuSans-Bold-20" x="672.949219"/>
     <use xlink:href="#DejaVuSans-Bold-6f" x="707.763672"/>
     <use xlink:href="#DejaVuSans-Bold-66" x="776.464844"/>
     <use xlink:href="#DejaVuSans-Bold-20" x="819.970703"/>
     <use xlink:href="#DejaVuSans-Bold-61" x="854.785156"/>
     <use xlink:href="#DejaVuSans-Bold-62" x="922.265625"/>
     <use xlink:href="#DejaVuSans-Bold-73" x="993.847656"/>
     <use xlink:href="#DejaVuSans-Bold-74" x="1053.369141"/>
     <use xlink:href="#DejaVuSans-Bold-61" x="1101.171875"/>
     <use xlink:href="#DejaVuSans-Bold-63" x="1168.652344"/>
     <use xlink:href="#DejaVuSans-Bold-74" x="1227.929688"/>
     <use xlink:href="#DejaVuSans-Bold-20" x="1275.732422"/>
     <use xlink:href="#DejaVuSans-Bold-6c" x="1310.546875"/>
     <use xlink:href="#DejaVuSans-Bold-65" x="1344.824219"/>
     <use xlink:href="#DejaVuSans-Bold-6e" x="1412.646484"/>
     <use xlink:href="#DejaVuSans-Bold-67" x="1483.837891"/>
     <use xlink:href="#DejaVuSans-Bold-74" x="1555.419922"/>
     <use xlink:href="#DejaVuSans-Bold-68" x="1603.222656"/>
     <use xlink:href="#DejaVuSans-Bold-73" x="1674.414062"/>
     <use xlink:href="#DejaVuSans-Bold-20" x="1733.935547"/>
     <use xlink:href="#DejaVuSans-Bold-66" x="1768.75"/>
     <use xlink:href="#DejaVuSans-Bold-6f" x="1812.255859"/>
     <use xlink:href="#DejaVuSans-Bold-72" x="1880.957031"/>
     <use xlink:href="#DejaVuSans-Bold-20" x="1930.273438"/>
     <use xlink:href="#DejaVuSans-Bold-53" x="1965.087891"/>
     <use xlink:href="#DejaVuSans-Bold-65" x="2037.109375"/>
     <use xlink:href="#DejaVuSans-Bold-6d" x="2104.931641"/>
     <use xlink:href="#DejaVuSans-Bold-61" x="2209.130859"/>
     <use xlink:href="#DejaVuSans-Bold-6e" x="2276.611328"/>
     <use xlink:href="#DejaVuSans-Bold-74" x="2347.802734"/>
     <use xlink:href="#DejaVuSans-Bold-69" x="2395.605469"/>
     <use xlink:href="#DejaVuSans-Bold-63" x="2429.882812"/>
     <use xlink:href="#DejaVuSans-Bold-20" x="2489.160156"/>
     <use xlink:href="#DejaVuSans-Bold-53" x="2523.974609"/>
     <use xlink:href="#DejaVuSans-Bold-63" x="2595.996094"/>
     <use xlink:href="#DejaVuSans-Bold-68" x="2655.273438"/>
     <use xlink:href="#DejaVuSans-Bold-6f" x="2726.464844"/>
     <use xlink:href="#DejaVuSans-Bold-6c" x="2795.166016"/>
     <use xlink:href="#DejaVuSans-Bold-61" x="2829.443359"/>
     <use xlink:href="#DejaVuSans-Bold-72" x="2896.923828"/>
     <use xlink:href="#DejaVuSans-Bold-20" x="2946.240234"/>
     <use xlink:href="#DejaVuSans-Bold-64" x="2981.054688"/>
     <use xlink:href="#DejaVuSans-Bold-61" x="3052.636719"/>
     <use xlink:href="#DejaVuSans-Bold-74" x="3120.117188"/>
     <use xlink:href="#DejaVuSans-Bold-61" x="3167.919922"/>
     <use xlink:href="#DejaVuSans-Bold-73" x="3235.400391"/>
     <use xlink:href="#DejaVuSans-Bold-65" x="3294.921875"/>
     <use xlink:href="#DejaVuSans-Bold-74" x="3362.744141"/>
    </g>
   </g>
  </g>
 </g>
 <defs>
  <clipPath id="p76d62e11e5">
   <rect x="72" y="51.84" width="446.4" height="332.64"/>
  </clipPath>
 </defs>
</svg>
