<?xml version="1.0" encoding="utf-8" standalone="no"?>
<!DOCTYPE svg PUBLIC "-//W3C//DTD SVG 1.1//EN"
  "http://www.w3.org/Graphics/SVG/1.1/DTD/svg11.dtd">
<svg xmlns:xlink="http://www.w3.org/1999/xlink" width="432pt" height="288pt" viewBox="0 0 432 288" xmlns="http://www.w3.org/2000/svg" version="1.1">
 <metadata>
  <rdf:RDF xmlns:dc="http://purl.org/dc/elements/1.1/" xmlns:cc="http://creativecommons.org/ns#" xmlns:rdf="http://www.w3.org/1999/02/22-rdf-syntax-ns#">
   <cc:Work>
    <dc:type rdf:resource="http://purl.org/dc/dcmitype/StillImage"/>
    <dc:date>2024-04-15T14:42:58.009988</dc:date>
    <dc:format>image/svg+xml</dc:format>
    <dc:creator>
     <cc:Agent>
      <dc:title>Matplotlib v3.7.3, https://matplotlib.org/</dc:title>
     </cc:Agent>
    </dc:creator>
   </cc:Work>
  </rdf:RDF>
 </metadata>
 <defs>
  <style type="text/css">*{stroke-linejoin: round; stroke-linecap: butt}</style>
 </defs>
 <g id="figure_1">
  <g id="patch_1">
   <path d="M 0 288 
L 432 288 
L 432 0 
L 0 0 
z
" style="fill: #ffffff"/>
  </g>
  <g id="axes_1">
   <g id="patch_2">
    <path d="M 54 135.36 
L 321.84 135.36 
L 321.84 34.56 
L 54 34.56 
z
" style="fill: #ffffff"/>
   </g>
   <g id="PolyCollection_1"/>
   <g id="PolyCollection_2"/>
   <g id="PolyCollection_3"/>
   <g id="PolyCollection_4"/>
   <g id="matplotlib.axis_1">
    <g id="xtick_1">
     <g id="line2d_1">
      <path d="M 66.174545 135.36 
L 66.174545 34.56 
" clip-path="url(#p28a4d7678c)" style="fill: none; stroke: #b0b0b0; stroke-width: 0.8; stroke-linecap: square"/>
     </g>
     <g id="line2d_2">
      <defs>
       <path id="ma88c5104db" d="M 0 0 
L 0 3.5 
" style="stroke: #000000; stroke-width: 0.8"/>
      </defs>
      <g>
       <use xlink:href="#ma88c5104db" x="66.174545" y="135.36" style="stroke: #000000; stroke-width: 0.8"/>
      </g>
     </g>
    </g>
    <g id="xtick_2">
     <g id="line2d_3">
      <path d="M 147.338182 135.36 
L 147.338182 34.56 
" clip-path="url(#p28a4d7678c)" style="fill: none; stroke: #b0b0b0; stroke-width: 0.8; stroke-linecap: square"/>
     </g>
     <g id="line2d_4">
      <g>
       <use xlink:href="#ma88c5104db" x="147.338182" y="135.36" style="stroke: #000000; stroke-width: 0.8"/>
      </g>
     </g>
    </g>
    <g id="xtick_3">
     <g id="line2d_5">
      <path d="M 228.501818 135.36 
L 228.501818 34.56 
" clip-path="url(#p28a4d7678c)" style="fill: none; stroke: #b0b0b0; stroke-width: 0.8; stroke-linecap: square"/>
     </g>
     <g id="line2d_6">
      <g>
       <use xlink:href="#ma88c5104db" x="228.501818" y="135.36" style="stroke: #000000; stroke-width: 0.8"/>
      </g>
     </g>
    </g>
    <g id="xtick_4">
     <g id="line2d_7">
      <path d="M 309.665455 135.36 
L 309.665455 34.56 
" clip-path="url(#p28a4d7678c)" style="fill: none; stroke: #b0b0b0; stroke-width: 0.8; stroke-linecap: square"/>
     </g>
     <g id="line2d_8">
      <g>
       <use xlink:href="#ma88c5104db" x="309.665455" y="135.36" style="stroke: #000000; stroke-width: 0.8"/>
      </g>
     </g>
    </g>
   </g>
   <g id="matplotlib.axis_2">
    <g id="ytick_1">
     <g id="line2d_9">
      <path d="M 54 126.658302 
L 321.84 126.658302 
" clip-path="url(#p28a4d7678c)" style="fill: none; stroke: #b0b0b0; stroke-width: 0.8; stroke-linecap: square"/>
     </g>
     <g id="line2d_10">
      <defs>
       <path id="m3e869dae38" d="M 0 0 
L -3.5 0 
" style="stroke: #000000; stroke-width: 0.8"/>
      </defs>
      <g>
       <use xlink:href="#m3e869dae38" x="54" y="126.658302" style="stroke: #000000; stroke-width: 0.8"/>
      </g>
     </g>
     <g id="text_1">
      <!-- 0.2 -->
      <g transform="translate(29.285937 130.457521) scale(0.1 -0.1)">
       <defs>
        <path id="DejaVuSans-Bold-30" d="M 2944 2338 
Q 2944 3213 2780 3570 
Q 2616 3928 2228 3928 
Q 1841 3928 1675 3570 
Q 1509 3213 1509 2338 
Q 1509 1453 1675 1090 
Q 1841 728 2228 728 
Q 2613 728 2778 1090 
Q 2944 1453 2944 2338 
z
M 4147 2328 
Q 4147 1169 3647 539 
Q 3147 -91 2228 -91 
Q 1306 -91 806 539 
Q 306 1169 306 2328 
Q 306 3491 806 4120 
Q 1306 4750 2228 4750 
Q 3147 4750 3647 4120 
Q 4147 3491 4147 2328 
z
" transform="scale(0.015625)"/>
        <path id="DejaVuSans-Bold-2e" d="M 653 1209 
L 1778 1209 
L 1778 0 
L 653 0 
L 653 1209 
z
" transform="scale(0.015625)"/>
        <path id="DejaVuSans-Bold-32" d="M 1844 884 
L 3897 884 
L 3897 0 
L 506 0 
L 506 884 
L 2209 2388 
Q 2438 2594 2547 2791 
Q 2656 2988 2656 3200 
Q 2656 3528 2436 3728 
Q 2216 3928 1850 3928 
Q 1569 3928 1234 3808 
Q 900 3688 519 3450 
L 519 4475 
Q 925 4609 1322 4679 
Q 1719 4750 2100 4750 
Q 2938 4750 3402 4381 
Q 3866 4013 3866 3353 
Q 3866 2972 3669 2642 
Q 3472 2313 2841 1759 
L 1844 884 
z
" transform="scale(0.015625)"/>
       </defs>
       <use xlink:href="#DejaVuSans-Bold-30"/>
       <use xlink:href="#DejaVuSans-Bold-2e" x="69.580078"/>
       <use xlink:href="#DejaVuSans-Bold-32" x="107.568359"/>
      </g>
     </g>
    </g>
    <g id="ytick_2">
     <g id="line2d_11">
      <path d="M 54 93.633214 
L 321.84 93.633214 
" clip-path="url(#p28a4d7678c)" style="fill: none; stroke: #b0b0b0; stroke-width: 0.8; stroke-linecap: square"/>
     </g>
     <g id="line2d_12">
      <g>
       <use xlink:href="#m3e869dae38" x="54" y="93.633214" style="stroke: #000000; stroke-width: 0.8"/>
      </g>
     </g>
     <g id="text_2">
      <!-- 0.4 -->
      <g transform="translate(29.285937 97.432433) scale(0.1 -0.1)">
       <defs>
        <path id="DejaVuSans-Bold-34" d="M 2356 3675 
L 1038 1722 
L 2356 1722 
L 2356 3675 
z
M 2156 4666 
L 3494 4666 
L 3494 1722 
L 4159 1722 
L 4159 850 
L 3494 850 
L 3494 0 
L 2356 0 
L 2356 850 
L 288 850 
L 288 1881 
L 2156 4666 
z
" transform="scale(0.015625)"/>
       </defs>
       <use xlink:href="#DejaVuSans-Bold-30"/>
       <use xlink:href="#DejaVuSans-Bold-2e" x="69.580078"/>
       <use xlink:href="#DejaVuSans-Bold-34" x="107.568359"/>
      </g>
     </g>
    </g>
    <g id="ytick_3">
     <g id="line2d_13">
      <path d="M 54 60.608126 
L 321.84 60.608126 
" clip-path="url(#p28a4d7678c)" style="fill: none; stroke: #b0b0b0; stroke-width: 0.8; stroke-linecap: square"/>
     </g>
     <g id="line2d_14">
      <g>
       <use xlink:href="#m3e869dae38" x="54" y="60.608126" style="stroke: #000000; stroke-width: 0.8"/>
      </g>
     </g>
     <g id="text_3">
      <!-- 0.6 -->
      <g transform="translate(29.285937 64.407344) scale(0.1 -0.1)">
       <defs>
        <path id="DejaVuSans-Bold-36" d="M 2316 2303 
Q 2000 2303 1842 2098 
Q 1684 1894 1684 1484 
Q 1684 1075 1842 870 
Q 2000 666 2316 666 
Q 2634 666 2792 870 
Q 2950 1075 2950 1484 
Q 2950 1894 2792 2098 
Q 2634 2303 2316 2303 
z
M 3803 4544 
L 3803 3681 
Q 3506 3822 3243 3889 
Q 2981 3956 2731 3956 
Q 2194 3956 1894 3657 
Q 1594 3359 1544 2772 
Q 1750 2925 1990 3001 
Q 2231 3078 2516 3078 
Q 3231 3078 3670 2659 
Q 4109 2241 4109 1563 
Q 4109 813 3618 361 
Q 3128 -91 2303 -91 
Q 1394 -91 895 523 
Q 397 1138 397 2266 
Q 397 3422 980 4083 
Q 1563 4744 2578 4744 
Q 2900 4744 3203 4694 
Q 3506 4644 3803 4544 
z
" transform="scale(0.015625)"/>
       </defs>
       <use xlink:href="#DejaVuSans-Bold-30"/>
       <use xlink:href="#DejaVuSans-Bold-2e" x="69.580078"/>
       <use xlink:href="#DejaVuSans-Bold-36" x="107.568359"/>
      </g>
     </g>
    </g>
    <g id="text_4">
     <!-- F1 score -->
     <g transform="translate(23.20625 108.827187) rotate(-90) scale(0.1 -0.1)">
      <defs>
       <path id="DejaVuSans-Bold-46" d="M 588 4666 
L 3834 4666 
L 3834 3756 
L 1791 3756 
L 1791 2888 
L 3713 2888 
L 3713 1978 
L 1791 1978 
L 1791 0 
L 588 0 
L 588 4666 
z
" transform="scale(0.015625)"/>
       <path id="DejaVuSans-Bold-31" d="M 750 831 
L 1813 831 
L 1813 3847 
L 722 3622 
L 722 4441 
L 1806 4666 
L 2950 4666 
L 2950 831 
L 4013 831 
L 4013 0 
L 750 0 
L 750 831 
z
" transform="scale(0.015625)"/>
       <path id="DejaVuSans-Bold-20" transform="scale(0.015625)"/>
       <path id="DejaVuSans-Bold-73" d="M 3272 3391 
L 3272 2541 
Q 2913 2691 2578 2766 
Q 2244 2841 1947 2841 
Q 1628 2841 1473 2761 
Q 1319 2681 1319 2516 
Q 1319 2381 1436 2309 
Q 1553 2238 1856 2203 
L 2053 2175 
Q 2913 2066 3209 1816 
Q 3506 1566 3506 1031 
Q 3506 472 3093 190 
Q 2681 -91 1863 -91 
Q 1516 -91 1145 -36 
Q 775 19 384 128 
L 384 978 
Q 719 816 1070 734 
Q 1422 653 1784 653 
Q 2113 653 2278 743 
Q 2444 834 2444 1013 
Q 2444 1163 2330 1236 
Q 2216 1309 1875 1350 
L 1678 1375 
Q 931 1469 631 1722 
Q 331 1975 331 2491 
Q 331 3047 712 3315 
Q 1094 3584 1881 3584 
Q 2191 3584 2531 3537 
Q 2872 3491 3272 3391 
z
" transform="scale(0.015625)"/>
       <path id="DejaVuSans-Bold-63" d="M 3366 3391 
L 3366 2478 
Q 3138 2634 2908 2709 
Q 2678 2784 2431 2784 
Q 1963 2784 1702 2511 
Q 1441 2238 1441 1747 
Q 1441 1256 1702 982 
Q 1963 709 2431 709 
Q 2694 709 2930 787 
Q 3166 866 3366 1019 
L 3366 103 
Q 3103 6 2833 -42 
Q 2563 -91 2291 -91 
Q 1344 -91 809 395 
Q 275 881 275 1747 
Q 275 2613 809 3098 
Q 1344 3584 2291 3584 
Q 2566 3584 2833 3536 
Q 3100 3488 3366 3391 
z
" transform="scale(0.015625)"/>
       <path id="DejaVuSans-Bold-6f" d="M 2203 2784 
Q 1831 2784 1636 2517 
Q 1441 2250 1441 1747 
Q 1441 1244 1636 976 
Q 1831 709 2203 709 
Q 2569 709 2762 976 
Q 2956 1244 2956 1747 
Q 2956 2250 2762 2517 
Q 2569 2784 2203 2784 
z
M 2203 3584 
Q 3106 3584 3614 3096 
Q 4122 2609 4122 1747 
Q 4122 884 3614 396 
Q 3106 -91 2203 -91 
Q 1297 -91 786 396 
Q 275 884 275 1747 
Q 275 2609 786 3096 
Q 1297 3584 2203 3584 
z
" transform="scale(0.015625)"/>
       <path id="DejaVuSans-Bold-72" d="M 3138 2547 
Q 2991 2616 2845 2648 
Q 2700 2681 2553 2681 
Q 2122 2681 1889 2404 
Q 1656 2128 1656 1613 
L 1656 0 
L 538 0 
L 538 3500 
L 1656 3500 
L 1656 2925 
Q 1872 3269 2151 3426 
Q 2431 3584 2822 3584 
Q 2878 3584 2943 3579 
Q 3009 3575 3134 3559 
L 3138 2547 
z
" transform="scale(0.015625)"/>
       <path id="DejaVuSans-Bold-65" d="M 4031 1759 
L 4031 1441 
L 1416 1441 
Q 1456 1047 1700 850 
Q 1944 653 2381 653 
Q 2734 653 3104 758 
Q 3475 863 3866 1075 
L 3866 213 
Q 3469 63 3072 -14 
Q 2675 -91 2278 -91 
Q 1328 -91 801 392 
Q 275 875 275 1747 
Q 275 2603 792 3093 
Q 1309 3584 2216 3584 
Q 3041 3584 3536 3087 
Q 4031 2591 4031 1759 
z
M 2881 2131 
Q 2881 2450 2695 2645 
Q 2509 2841 2209 2841 
Q 1884 2841 1681 2658 
Q 1478 2475 1428 2131 
L 2881 2131 
z
" transform="scale(0.015625)"/>
      </defs>
      <use xlink:href="#DejaVuSans-Bold-46"/>
      <use xlink:href="#DejaVuSans-Bold-31" x="68.310547"/>
      <use xlink:href="#DejaVuSans-Bold-20" x="137.890625"/>
      <use xlink:href="#DejaVuSans-Bold-73" x="172.705078"/>
      <use xlink:href="#DejaVuSans-Bold-63" x="232.226562"/>
      <use xlink:href="#DejaVuSans-Bold-6f" x="291.503906"/>
      <use xlink:href="#DejaVuSans-Bold-72" x="360.205078"/>
      <use xlink:href="#DejaVuSans-Bold-65" x="409.521484"/>
     </g>
    </g>
   </g>
   <g id="line2d_15">
    <path d="M 66.174545 100.238231 
L 147.338182 120.053284 
L 228.501818 110.145758 
L 309.665455 110.145758 
" clip-path="url(#p28a4d7678c)" style="fill: none; stroke-dasharray: 5.55,2.4; stroke-dashoffset: 0; stroke: #ff8400; stroke-width: 1.5"/>
   </g>
   <g id="line2d_16">
    <path d="M 66.174545 123.355793 
L 147.338182 116.750776 
L 228.501818 111.797012 
L 309.665455 115.099521 
" clip-path="url(#p28a4d7678c)" style="fill: none; stroke-dasharray: 5.55,2.4; stroke-dashoffset: 0; stroke: #4374b3; stroke-width: 1.5"/>
   </g>
   <g id="line2d_17">
    <path d="M 66.174545 44.095581 
L 147.338182 39.141818 
L 228.501818 40.793073 
L 309.665455 42.444327 
" clip-path="url(#p28a4d7678c)" style="fill: none; stroke: #ff8400; stroke-width: 1.5; stroke-linecap: square"/>
   </g>
   <g id="line2d_18">
    <path d="M 66.174545 42.444327 
L 147.338182 42.444327 
L 228.501818 42.444327 
L 309.665455 47.39809 
" clip-path="url(#p28a4d7678c)" style="fill: none; stroke: #4374b3; stroke-width: 1.5; stroke-linecap: square"/>
   </g>
   <g id="line2d_19">
    <path d="M 147.338182 130.778182 
L 147.338182 39.141818 
" clip-path="url(#p28a4d7678c)" style="fill: none; stroke-dasharray: 9.6,2.4,1.5,2.4; stroke-dashoffset: 0; stroke: #008000; stroke-width: 1.5"/>
    <defs>
     <path id="m31803ffeb2" d="M -2.5 2.5 
L 2.5 -2.5 
M -2.5 -2.5 
L 2.5 2.5 
" style="stroke: #008000; stroke-width: 2"/>
    </defs>
    <g clip-path="url(#p28a4d7678c)">
     <use xlink:href="#m31803ffeb2" x="147.338182" y="130.778182" style="fill: #008000; stroke: #008000; stroke-width: 2"/>
     <use xlink:href="#m31803ffeb2" x="147.338182" y="39.141818" style="fill: #008000; stroke: #008000; stroke-width: 2"/>
    </g>
   </g>
   <g id="patch_3">
    <path d="M 54 135.36 
L 54 34.56 
" style="fill: none; stroke: #000000; stroke-width: 0.8; stroke-linejoin: miter; stroke-linecap: square"/>
   </g>
   <g id="patch_4">
    <path d="M 54 135.36 
L 321.84 135.36 
" style="fill: none; stroke: #000000; stroke-width: 0.8; stroke-linejoin: miter; stroke-linecap: square"/>
   </g>
   <g id="text_5">
    <!-- SlimPajama -->
    <g transform="translate(155.100469 28.56) scale(0.1 -0.1)">
     <defs>
      <path id="DejaVuSans-Bold-53" d="M 3834 4519 
L 3834 3531 
Q 3450 3703 3084 3790 
Q 2719 3878 2394 3878 
Q 1963 3878 1756 3759 
Q 1550 3641 1550 3391 
Q 1550 3203 1689 3098 
Q 1828 2994 2194 2919 
L 2706 2816 
Q 3484 2659 3812 2340 
Q 4141 2022 4141 1434 
Q 4141 663 3683 286 
Q 3225 -91 2284 -91 
Q 1841 -91 1394 -6 
Q 947 78 500 244 
L 500 1259 
Q 947 1022 1364 901 
Q 1781 781 2169 781 
Q 2563 781 2772 912 
Q 2981 1044 2981 1288 
Q 2981 1506 2839 1625 
Q 2697 1744 2272 1838 
L 1806 1941 
Q 1106 2091 782 2419 
Q 459 2747 459 3303 
Q 459 4000 909 4375 
Q 1359 4750 2203 4750 
Q 2588 4750 2994 4692 
Q 3400 4634 3834 4519 
z
" transform="scale(0.015625)"/>
      <path id="DejaVuSans-Bold-6c" d="M 538 4863 
L 1656 4863 
L 1656 0 
L 538 0 
L 538 4863 
z
" transform="scale(0.015625)"/>
      <path id="DejaVuSans-Bold-69" d="M 538 3500 
L 1656 3500 
L 1656 0 
L 538 0 
L 538 3500 
z
M 538 4863 
L 1656 4863 
L 1656 3950 
L 538 3950 
L 538 4863 
z
" transform="scale(0.015625)"/>
      <path id="DejaVuSans-Bold-6d" d="M 3781 2919 
Q 3994 3244 4286 3414 
Q 4578 3584 4928 3584 
Q 5531 3584 5847 3212 
Q 6163 2841 6163 2131 
L 6163 0 
L 5038 0 
L 5038 1825 
Q 5041 1866 5042 1909 
Q 5044 1953 5044 2034 
Q 5044 2406 4934 2573 
Q 4825 2741 4581 2741 
Q 4263 2741 4089 2478 
Q 3916 2216 3909 1719 
L 3909 0 
L 2784 0 
L 2784 1825 
Q 2784 2406 2684 2573 
Q 2584 2741 2328 2741 
Q 2006 2741 1831 2477 
Q 1656 2213 1656 1722 
L 1656 0 
L 531 0 
L 531 3500 
L 1656 3500 
L 1656 2988 
Q 1863 3284 2130 3434 
Q 2397 3584 2719 3584 
Q 3081 3584 3359 3409 
Q 3638 3234 3781 2919 
z
" transform="scale(0.015625)"/>
      <path id="DejaVuSans-Bold-50" d="M 588 4666 
L 2584 4666 
Q 3475 4666 3951 4270 
Q 4428 3875 4428 3144 
Q 4428 2409 3951 2014 
Q 3475 1619 2584 1619 
L 1791 1619 
L 1791 0 
L 588 0 
L 588 4666 
z
M 1791 3794 
L 1791 2491 
L 2456 2491 
Q 2806 2491 2997 2661 
Q 3188 2831 3188 3144 
Q 3188 3456 2997 3625 
Q 2806 3794 2456 3794 
L 1791 3794 
z
" transform="scale(0.015625)"/>
      <path id="DejaVuSans-Bold-61" d="M 2106 1575 
Q 1756 1575 1579 1456 
Q 1403 1338 1403 1106 
Q 1403 894 1545 773 
Q 1688 653 1941 653 
Q 2256 653 2472 879 
Q 2688 1106 2688 1447 
L 2688 1575 
L 2106 1575 
z
M 3816 1997 
L 3816 0 
L 2688 0 
L 2688 519 
Q 2463 200 2181 54 
Q 1900 -91 1497 -91 
Q 953 -91 614 226 
Q 275 544 275 1050 
Q 275 1666 698 1953 
Q 1122 2241 2028 2241 
L 2688 2241 
L 2688 2328 
Q 2688 2594 2478 2717 
Q 2269 2841 1825 2841 
Q 1466 2841 1156 2769 
Q 847 2697 581 2553 
L 581 3406 
Q 941 3494 1303 3539 
Q 1666 3584 2028 3584 
Q 2975 3584 3395 3211 
Q 3816 2838 3816 1997 
z
" transform="scale(0.015625)"/>
      <path id="DejaVuSans-Bold-6a" d="M 538 3500 
L 1656 3500 
L 1656 63 
Q 1656 -641 1318 -1011 
Q 981 -1381 341 -1381 
L -213 -1381 
L -213 -647 
L -19 -647 
Q 300 -647 419 -503 
Q 538 -359 538 63 
L 538 3500 
z
M 538 4863 
L 1656 4863 
L 1656 3950 
L 538 3950 
L 538 4863 
z
" transform="scale(0.015625)"/>
     </defs>
     <use xlink:href="#DejaVuSans-Bold-53"/>
     <use xlink:href="#DejaVuSans-Bold-6c" x="72.021484"/>
     <use xlink:href="#DejaVuSans-Bold-69" x="106.298828"/>
     <use xlink:href="#DejaVuSans-Bold-6d" x="140.576172"/>
     <use xlink:href="#DejaVuSans-Bold-50" x="244.775391"/>
     <use xlink:href="#DejaVuSans-Bold-61" x="315.441406"/>
     <use xlink:href="#DejaVuSans-Bold-6a" x="382.921875"/>
     <use xlink:href="#DejaVuSans-Bold-61" x="417.199219"/>
     <use xlink:href="#DejaVuSans-Bold-6d" x="484.679688"/>
     <use xlink:href="#DejaVuSans-Bold-61" x="588.878906"/>
    </g>
   </g>
   <g id="legend_1">
    <g id="patch_5">
     <path d="M 326.74 111.891406 
L 390.172031 111.891406 
Q 391.572031 111.891406 391.572031 110.491406 
L 391.572031 59.428594 
Q 391.572031 58.028594 390.172031 58.028594 
L 326.74 58.028594 
Q 325.34 58.028594 325.34 59.428594 
L 325.34 110.491406 
Q 325.34 111.891406 326.74 111.891406 
z
" style="fill: #ffffff; opacity: 0.8; stroke: #cccccc; stroke-linejoin: miter"/>
    </g>
    <g id="line2d_20">
     <path d="M 328.14 63.6975 
L 335.14 63.6975 
L 342.14 63.6975 
" style="fill: none; stroke-dasharray: 5.55,2.4; stroke-dashoffset: 0; stroke: #ff8400; stroke-width: 1.5"/>
    </g>
    <g id="text_6">
     <!-- raw -->
     <g transform="translate(347.74 66.1475) scale(0.07 -0.07)">
      <defs>
       <path id="DejaVuSans-Bold-77" d="M 225 3500 
L 1313 3500 
L 1900 1088 
L 2491 3500 
L 3425 3500 
L 4013 1113 
L 4603 3500 
L 5691 3500 
L 4769 0 
L 3547 0 
L 2956 2406 
L 2369 0 
L 1147 0 
L 225 3500 
z
" transform="scale(0.015625)"/>
      </defs>
      <use xlink:href="#DejaVuSans-Bold-72"/>
      <use xlink:href="#DejaVuSans-Bold-61" x="49.316406"/>
      <use xlink:href="#DejaVuSans-Bold-77" x="116.796875"/>
     </g>
    </g>
    <g id="line2d_21">
     <path d="M 328.14 73.972187 
L 335.14 73.972187 
L 342.14 73.972187 
" style="fill: none; stroke-dasharray: 5.55,2.4; stroke-dashoffset: 0; stroke: #4374b3; stroke-width: 1.5"/>
    </g>
    <g id="text_7">
     <!-- reph -->
     <g transform="translate(347.74 76.422187) scale(0.07 -0.07)">
      <defs>
       <path id="DejaVuSans-Bold-70" d="M 1656 506 
L 1656 -1331 
L 538 -1331 
L 538 3500 
L 1656 3500 
L 1656 2988 
Q 1888 3294 2169 3439 
Q 2450 3584 2816 3584 
Q 3463 3584 3878 3070 
Q 4294 2556 4294 1747 
Q 4294 938 3878 423 
Q 3463 -91 2816 -91 
Q 2450 -91 2169 54 
Q 1888 200 1656 506 
z
M 2400 2772 
Q 2041 2772 1848 2508 
Q 1656 2244 1656 1747 
Q 1656 1250 1848 986 
Q 2041 722 2400 722 
Q 2759 722 2948 984 
Q 3138 1247 3138 1747 
Q 3138 2247 2948 2509 
Q 2759 2772 2400 2772 
z
" transform="scale(0.015625)"/>
       <path id="DejaVuSans-Bold-68" d="M 4056 2131 
L 4056 0 
L 2931 0 
L 2931 347 
L 2931 1625 
Q 2931 2084 2911 2256 
Q 2891 2428 2841 2509 
Q 2775 2619 2662 2680 
Q 2550 2741 2406 2741 
Q 2056 2741 1856 2470 
Q 1656 2200 1656 1722 
L 1656 0 
L 538 0 
L 538 4863 
L 1656 4863 
L 1656 2988 
Q 1909 3294 2193 3439 
Q 2478 3584 2822 3584 
Q 3428 3584 3742 3212 
Q 4056 2841 4056 2131 
z
" transform="scale(0.015625)"/>
      </defs>
      <use xlink:href="#DejaVuSans-Bold-72"/>
      <use xlink:href="#DejaVuSans-Bold-65" x="49.316406"/>
      <use xlink:href="#DejaVuSans-Bold-70" x="117.138672"/>
      <use xlink:href="#DejaVuSans-Bold-68" x="188.720703"/>
     </g>
    </g>
    <g id="line2d_22">
     <path d="M 328.14 84.246875 
L 335.14 84.246875 
L 342.14 84.246875 
" style="fill: none; stroke: #ff8400; stroke-width: 1.5; stroke-linecap: square"/>
    </g>
    <g id="text_8">
     <!-- raw_ft -->
     <g transform="translate(347.74 86.696875) scale(0.07 -0.07)">
      <defs>
       <path id="DejaVuSans-Bold-5f" d="M 3200 -916 
L 3200 -1509 
L 0 -1509 
L 0 -916 
L 3200 -916 
z
" transform="scale(0.015625)"/>
       <path id="DejaVuSans-Bold-66" d="M 2841 4863 
L 2841 4128 
L 2222 4128 
Q 1984 4128 1890 4042 
Q 1797 3956 1797 3744 
L 1797 3500 
L 2753 3500 
L 2753 2700 
L 1797 2700 
L 1797 0 
L 678 0 
L 678 2700 
L 122 2700 
L 122 3500 
L 678 3500 
L 678 3744 
Q 678 4316 997 4589 
Q 1316 4863 1984 4863 
L 2841 4863 
z
" transform="scale(0.015625)"/>
       <path id="DejaVuSans-Bold-74" d="M 1759 4494 
L 1759 3500 
L 2913 3500 
L 2913 2700 
L 1759 2700 
L 1759 1216 
Q 1759 972 1856 886 
Q 1953 800 2241 800 
L 2816 800 
L 2816 0 
L 1856 0 
Q 1194 0 917 276 
Q 641 553 641 1216 
L 641 2700 
L 84 2700 
L 84 3500 
L 641 3500 
L 641 4494 
L 1759 4494 
z
" transform="scale(0.015625)"/>
      </defs>
      <use xlink:href="#DejaVuSans-Bold-72"/>
      <use xlink:href="#DejaVuSans-Bold-61" x="49.316406"/>
      <use xlink:href="#DejaVuSans-Bold-77" x="116.796875"/>
      <use xlink:href="#DejaVuSans-Bold-5f" x="209.179688"/>
      <use xlink:href="#DejaVuSans-Bold-66" x="259.179688"/>
      <use xlink:href="#DejaVuSans-Bold-74" x="302.685547"/>
     </g>
    </g>
    <g id="line2d_23">
     <path d="M 328.14 94.71625 
L 335.14 94.71625 
L 342.14 94.71625 
" style="fill: none; stroke: #4374b3; stroke-width: 1.5; stroke-linecap: square"/>
    </g>
    <g id="text_9">
     <!-- reph_ft -->
     <g transform="translate(347.74 97.16625) scale(0.07 -0.07)">
      <use xlink:href="#DejaVuSans-Bold-72"/>
      <use xlink:href="#DejaVuSans-Bold-65" x="49.316406"/>
      <use xlink:href="#DejaVuSans-Bold-70" x="117.138672"/>
      <use xlink:href="#DejaVuSans-Bold-68" x="188.720703"/>
      <use xlink:href="#DejaVuSans-Bold-5f" x="259.912109"/>
      <use xlink:href="#DejaVuSans-Bold-66" x="309.912109"/>
      <use xlink:href="#DejaVuSans-Bold-74" x="353.417969"/>
     </g>
    </g>
    <g id="line2d_24">
     <path d="M 328.14 105.185625 
L 335.14 105.185625 
L 342.14 105.185625 
" style="fill: none; stroke-dasharray: 9.6,2.4,1.5,2.4; stroke-dashoffset: 0; stroke: #008000; stroke-width: 1.5"/>
     <g>
      <use xlink:href="#m31803ffeb2" x="335.14" y="105.185625" style="fill: #008000; stroke: #008000; stroke-width: 2"/>
     </g>
    </g>
    <g id="text_10">
     <!-- best score -->
     <g transform="translate(347.74 107.635625) scale(0.07 -0.07)">
      <defs>
       <path id="DejaVuSans-Bold-62" d="M 2400 722 
Q 2759 722 2948 984 
Q 3138 1247 3138 1747 
Q 3138 2247 2948 2509 
Q 2759 2772 2400 2772 
Q 2041 2772 1848 2508 
Q 1656 2244 1656 1747 
Q 1656 1250 1848 986 
Q 2041 722 2400 722 
z
M 1656 2988 
Q 1888 3294 2169 3439 
Q 2450 3584 2816 3584 
Q 3463 3584 3878 3070 
Q 4294 2556 4294 1747 
Q 4294 938 3878 423 
Q 3463 -91 2816 -91 
Q 2450 -91 2169 54 
Q 1888 200 1656 506 
L 1656 0 
L 538 0 
L 538 4863 
L 1656 4863 
L 1656 2988 
z
" transform="scale(0.015625)"/>
      </defs>
      <use xlink:href="#DejaVuSans-Bold-62"/>
      <use xlink:href="#DejaVuSans-Bold-65" x="71.582031"/>
      <use xlink:href="#DejaVuSans-Bold-73" x="139.404297"/>
      <use xlink:href="#DejaVuSans-Bold-74" x="198.925781"/>
      <use xlink:href="#DejaVuSans-Bold-20" x="246.728516"/>
      <use xlink:href="#DejaVuSans-Bold-73" x="281.542969"/>
      <use xlink:href="#DejaVuSans-Bold-63" x="341.064453"/>
      <use xlink:href="#DejaVuSans-Bold-6f" x="400.341797"/>
      <use xlink:href="#DejaVuSans-Bold-72" x="469.042969"/>
      <use xlink:href="#DejaVuSans-Bold-65" x="518.359375"/>
     </g>
    </g>
   </g>
  </g>
  <g id="axes_2">
   <g id="patch_6">
    <path d="M 54 256.32 
L 321.84 256.32 
L 321.84 155.52 
L 54 155.52 
z
" style="fill: #ffffff"/>
   </g>
   <g id="PolyCollection_5"/>
   <g id="PolyCollection_6"/>
   <g id="PolyCollection_7"/>
   <g id="PolyCollection_8"/>
   <g id="matplotlib.axis_3">
    <g id="xtick_5">
     <g id="line2d_25">
      <path d="M 66.174545 256.32 
L 66.174545 155.52 
" clip-path="url(#pda43432abb)" style="fill: none; stroke: #b0b0b0; stroke-width: 0.8; stroke-linecap: square"/>
     </g>
     <g id="line2d_26">
      <g>
       <use xlink:href="#ma88c5104db" x="66.174545" y="256.32" style="stroke: #000000; stroke-width: 0.8"/>
      </g>
     </g>
     <g id="text_11">
      <!-- 1 -->
      <g transform="translate(62.695639 270.918437) scale(0.1 -0.1)">
       <use xlink:href="#DejaVuSans-Bold-31"/>
      </g>
     </g>
    </g>
    <g id="xtick_6">
     <g id="line2d_27">
      <path d="M 147.338182 256.32 
L 147.338182 155.52 
" clip-path="url(#pda43432abb)" style="fill: none; stroke: #b0b0b0; stroke-width: 0.8; stroke-linecap: square"/>
     </g>
     <g id="line2d_28">
      <g>
       <use xlink:href="#ma88c5104db" x="147.338182" y="256.32" style="stroke: #000000; stroke-width: 0.8"/>
      </g>
     </g>
     <g id="text_12">
      <!-- 2 -->
      <g transform="translate(143.859276 270.918437) scale(0.1 -0.1)">
       <use xlink:href="#DejaVuSans-Bold-32"/>
      </g>
     </g>
    </g>
    <g id="xtick_7">
     <g id="line2d_29">
      <path d="M 228.501818 256.32 
L 228.501818 155.52 
" clip-path="url(#pda43432abb)" style="fill: none; stroke: #b0b0b0; stroke-width: 0.8; stroke-linecap: square"/>
     </g>
     <g id="line2d_30">
      <g>
       <use xlink:href="#ma88c5104db" x="228.501818" y="256.32" style="stroke: #000000; stroke-width: 0.8"/>
      </g>
     </g>
     <g id="text_13">
      <!-- 3 -->
      <g transform="translate(225.022912 270.918437) scale(0.1 -0.1)">
       <defs>
        <path id="DejaVuSans-Bold-33" d="M 2981 2516 
Q 3453 2394 3698 2092 
Q 3944 1791 3944 1325 
Q 3944 631 3412 270 
Q 2881 -91 1863 -91 
Q 1503 -91 1142 -33 
Q 781 25 428 141 
L 428 1069 
Q 766 900 1098 814 
Q 1431 728 1753 728 
Q 2231 728 2486 893 
Q 2741 1059 2741 1369 
Q 2741 1688 2480 1852 
Q 2219 2016 1709 2016 
L 1228 2016 
L 1228 2791 
L 1734 2791 
Q 2188 2791 2409 2933 
Q 2631 3075 2631 3366 
Q 2631 3634 2415 3781 
Q 2200 3928 1806 3928 
Q 1516 3928 1219 3862 
Q 922 3797 628 3669 
L 628 4550 
Q 984 4650 1334 4700 
Q 1684 4750 2022 4750 
Q 2931 4750 3382 4451 
Q 3834 4153 3834 3553 
Q 3834 3144 3618 2883 
Q 3403 2622 2981 2516 
z
" transform="scale(0.015625)"/>
       </defs>
       <use xlink:href="#DejaVuSans-Bold-33"/>
      </g>
     </g>
    </g>
    <g id="xtick_8">
     <g id="line2d_31">
      <path d="M 309.665455 256.32 
L 309.665455 155.52 
" clip-path="url(#pda43432abb)" style="fill: none; stroke: #b0b0b0; stroke-width: 0.8; stroke-linecap: square"/>
     </g>
     <g id="line2d_32">
      <g>
       <use xlink:href="#ma88c5104db" x="309.665455" y="256.32" style="stroke: #000000; stroke-width: 0.8"/>
      </g>
     </g>
     <g id="text_14">
      <!-- 4 -->
      <g transform="translate(306.186548 270.918437) scale(0.1 -0.1)">
       <use xlink:href="#DejaVuSans-Bold-34"/>
      </g>
     </g>
    </g>
    <g id="text_15">
     <!-- epochs -->
     <g transform="translate(168.015313 284.596563) scale(0.1 -0.1)">
      <use xlink:href="#DejaVuSans-Bold-65"/>
      <use xlink:href="#DejaVuSans-Bold-70" x="67.822266"/>
      <use xlink:href="#DejaVuSans-Bold-6f" x="139.404297"/>
      <use xlink:href="#DejaVuSans-Bold-63" x="208.105469"/>
      <use xlink:href="#DejaVuSans-Bold-68" x="267.382812"/>
      <use xlink:href="#DejaVuSans-Bold-73" x="338.574219"/>
     </g>
    </g>
   </g>
   <g id="matplotlib.axis_4">
    <g id="ytick_4">
     <g id="line2d_33">
      <path d="M 54 236.361464 
L 321.84 236.361464 
" clip-path="url(#pda43432abb)" style="fill: none; stroke: #b0b0b0; stroke-width: 0.8; stroke-linecap: square"/>
     </g>
     <g id="line2d_34">
      <g>
       <use xlink:href="#m3e869dae38" x="54" y="236.361464" style="stroke: #000000; stroke-width: 0.8"/>
      </g>
     </g>
     <g id="text_16">
      <!-- 0.2 -->
      <g transform="translate(29.285937 240.160683) scale(0.1 -0.1)">
       <use xlink:href="#DejaVuSans-Bold-30"/>
       <use xlink:href="#DejaVuSans-Bold-2e" x="69.580078"/>
       <use xlink:href="#DejaVuSans-Bold-32" x="107.568359"/>
      </g>
     </g>
    </g>
    <g id="ytick_5">
     <g id="line2d_35">
      <path d="M 54 208.630684 
L 321.84 208.630684 
" clip-path="url(#pda43432abb)" style="fill: none; stroke: #b0b0b0; stroke-width: 0.8; stroke-linecap: square"/>
     </g>
     <g id="line2d_36">
      <g>
       <use xlink:href="#m3e869dae38" x="54" y="208.630684" style="stroke: #000000; stroke-width: 0.8"/>
      </g>
     </g>
     <g id="text_17">
      <!-- 0.4 -->
      <g transform="translate(29.285937 212.429903) scale(0.1 -0.1)">
       <use xlink:href="#DejaVuSans-Bold-30"/>
       <use xlink:href="#DejaVuSans-Bold-2e" x="69.580078"/>
       <use xlink:href="#DejaVuSans-Bold-34" x="107.568359"/>
      </g>
     </g>
    </g>
    <g id="ytick_6">
     <g id="line2d_37">
      <path d="M 54 180.899903 
L 321.84 180.899903 
" clip-path="url(#pda43432abb)" style="fill: none; stroke: #b0b0b0; stroke-width: 0.8; stroke-linecap: square"/>
     </g>
     <g id="line2d_38">
      <g>
       <use xlink:href="#m3e869dae38" x="54" y="180.899903" style="stroke: #000000; stroke-width: 0.8"/>
      </g>
     </g>
     <g id="text_18">
      <!-- 0.6 -->
      <g transform="translate(29.285937 184.699122) scale(0.1 -0.1)">
       <use xlink:href="#DejaVuSans-Bold-30"/>
       <use xlink:href="#DejaVuSans-Bold-2e" x="69.580078"/>
       <use xlink:href="#DejaVuSans-Bold-36" x="107.568359"/>
      </g>
     </g>
    </g>
    <g id="text_19">
     <!-- F1 score -->
     <g transform="translate(23.20625 229.787187) rotate(-90) scale(0.1 -0.1)">
      <use xlink:href="#DejaVuSans-Bold-46"/>
      <use xlink:href="#DejaVuSans-Bold-31" x="68.310547"/>
      <use xlink:href="#DejaVuSans-Bold-20" x="137.890625"/>
      <use xlink:href="#DejaVuSans-Bold-73" x="172.705078"/>
      <use xlink:href="#DejaVuSans-Bold-63" x="232.226562"/>
      <use xlink:href="#DejaVuSans-Bold-6f" x="291.503906"/>
      <use xlink:href="#DejaVuSans-Bold-72" x="360.205078"/>
      <use xlink:href="#DejaVuSans-Bold-65" x="409.521484"/>
     </g>
    </g>
   </g>
   <g id="line2d_39">
    <path d="M 66.174545 240.521081 
L 147.338182 232.201847 
L 228.501818 232.201847 
L 309.665455 229.428769 
" clip-path="url(#pda43432abb)" style="fill: none; stroke-dasharray: 5.55,2.4; stroke-dashoffset: 0; stroke: #ff8400; stroke-width: 1.5"/>
   </g>
   <g id="line2d_40">
    <path d="M 66.174545 241.90762 
L 147.338182 243.294159 
L 228.501818 246.067237 
L 309.665455 239.134542 
" clip-path="url(#pda43432abb)" style="fill: none; stroke-dasharray: 5.55,2.4; stroke-dashoffset: 0; stroke: #4374b3; stroke-width: 1.5"/>
   </g>
   <g id="line2d_41">
    <path d="M 66.174545 167.034513 
L 147.338182 164.261435 
L 228.501818 160.101818 
L 309.665455 164.261435 
" clip-path="url(#pda43432abb)" style="fill: none; stroke: #ff8400; stroke-width: 1.5; stroke-linecap: square"/>
   </g>
   <g id="line2d_42">
    <path d="M 66.174545 165.647974 
L 147.338182 162.874896 
L 228.501818 164.261435 
L 309.665455 164.261435 
" clip-path="url(#pda43432abb)" style="fill: none; stroke: #4374b3; stroke-width: 1.5; stroke-linecap: square"/>
   </g>
   <g id="line2d_43">
    <path d="M 228.501818 251.738182 
L 228.501818 160.101818 
" clip-path="url(#pda43432abb)" style="fill: none; stroke-dasharray: 9.6,2.4,1.5,2.4; stroke-dashoffset: 0; stroke: #008000; stroke-width: 1.5"/>
    <g clip-path="url(#pda43432abb)">
     <use xlink:href="#m31803ffeb2" x="228.501818" y="251.738182" style="fill: #008000; stroke: #008000; stroke-width: 2"/>
     <use xlink:href="#m31803ffeb2" x="228.501818" y="160.101818" style="fill: #008000; stroke: #008000; stroke-width: 2"/>
    </g>
   </g>
   <g id="patch_7">
    <path d="M 54 256.32 
L 54 155.52 
" style="fill: none; stroke: #000000; stroke-width: 0.8; stroke-linejoin: miter; stroke-linecap: square"/>
   </g>
   <g id="patch_8">
    <path d="M 54 256.32 
L 321.84 256.32 
" style="fill: none; stroke: #000000; stroke-width: 0.8; stroke-linejoin: miter; stroke-linecap: square"/>
   </g>
   <g id="text_20">
    <!-- SemanticScholar -->
    <g transform="translate(140.602813 149.52) scale(0.1 -0.1)">
     <defs>
      <path id="DejaVuSans-Bold-6e" d="M 4056 2131 
L 4056 0 
L 2931 0 
L 2931 347 
L 2931 1631 
Q 2931 2084 2911 2256 
Q 2891 2428 2841 2509 
Q 2775 2619 2662 2680 
Q 2550 2741 2406 2741 
Q 2056 2741 1856 2470 
Q 1656 2200 1656 1722 
L 1656 0 
L 538 0 
L 538 3500 
L 1656 3500 
L 1656 2988 
Q 1909 3294 2193 3439 
Q 2478 3584 2822 3584 
Q 3428 3584 3742 3212 
Q 4056 2841 4056 2131 
z
" transform="scale(0.015625)"/>
     </defs>
     <use xlink:href="#DejaVuSans-Bold-53"/>
     <use xlink:href="#DejaVuSans-Bold-65" x="72.021484"/>
     <use xlink:href="#DejaVuSans-Bold-6d" x="139.84375"/>
     <use xlink:href="#DejaVuSans-Bold-61" x="244.042969"/>
     <use xlink:href="#DejaVuSans-Bold-6e" x="311.523438"/>
     <use xlink:href="#DejaVuSans-Bold-74" x="382.714844"/>
     <use xlink:href="#DejaVuSans-Bold-69" x="430.517578"/>
     <use xlink:href="#DejaVuSans-Bold-63" x="464.794922"/>
     <use xlink:href="#DejaVuSans-Bold-53" x="524.072266"/>
     <use xlink:href="#DejaVuSans-Bold-63" x="596.09375"/>
     <use xlink:href="#DejaVuSans-Bold-68" x="655.371094"/>
     <use xlink:href="#DejaVuSans-Bold-6f" x="726.5625"/>
     <use xlink:href="#DejaVuSans-Bold-6c" x="795.263672"/>
     <use xlink:href="#DejaVuSans-Bold-61" x="829.541016"/>
     <use xlink:href="#DejaVuSans-Bold-72" x="897.021484"/>
    </g>
   </g>
   <g id="legend_2">
    <g id="patch_9">
     <path d="M 326.74 232.851406 
L 390.172031 232.851406 
Q 391.572031 232.851406 391.572031 231.451406 
L 391.572031 180.388594 
Q 391.572031 178.988594 390.172031 178.988594 
L 326.74 178.988594 
Q 325.34 178.988594 325.34 180.388594 
L 325.34 231.451406 
Q 325.34 232.851406 326.74 232.851406 
z
" style="fill: #ffffff; opacity: 0.8; stroke: #cccccc; stroke-linejoin: miter"/>
    </g>
    <g id="line2d_44">
     <path d="M 328.14 184.6575 
L 335.14 184.6575 
L 342.14 184.6575 
" style="fill: none; stroke-dasharray: 5.55,2.4; stroke-dashoffset: 0; stroke: #ff8400; stroke-width: 1.5"/>
    </g>
    <g id="text_21">
     <!-- raw -->
     <g transform="translate(347.74 187.1075) scale(0.07 -0.07)">
      <use xlink:href="#DejaVuSans-Bold-72"/>
      <use xlink:href="#DejaVuSans-Bold-61" x="49.316406"/>
      <use xlink:href="#DejaVuSans-Bold-77" x="116.796875"/>
     </g>
    </g>
    <g id="line2d_45">
     <path d="M 328.14 194.932187 
L 335.14 194.932187 
L 342.14 194.932187 
" style="fill: none; stroke-dasharray: 5.55,2.4; stroke-dashoffset: 0; stroke: #4374b3; stroke-width: 1.5"/>
    </g>
    <g id="text_22">
     <!-- reph -->
     <g transform="translate(347.74 197.382187) scale(0.07 -0.07)">
      <use xlink:href="#DejaVuSans-Bold-72"/>
      <use xlink:href="#DejaVuSans-Bold-65" x="49.316406"/>
      <use xlink:href="#DejaVuSans-Bold-70" x="117.138672"/>
      <use xlink:href="#DejaVuSans-Bold-68" x="188.720703"/>
     </g>
    </g>
    <g id="line2d_46">
     <path d="M 328.14 205.206875 
L 335.14 205.206875 
L 342.14 205.206875 
" style="fill: none; stroke: #ff8400; stroke-width: 1.5; stroke-linecap: square"/>
    </g>
    <g id="text_23">
     <!-- raw_ft -->
     <g transform="translate(347.74 207.656875) scale(0.07 -0.07)">
      <use xlink:href="#DejaVuSans-Bold-72"/>
      <use xlink:href="#DejaVuSans-Bold-61" x="49.316406"/>
      <use xlink:href="#DejaVuSans-Bold-77" x="116.796875"/>
      <use xlink:href="#DejaVuSans-Bold-5f" x="209.179688"/>
      <use xlink:href="#DejaVuSans-Bold-66" x="259.179688"/>
      <use xlink:href="#DejaVuSans-Bold-74" x="302.685547"/>
     </g>
    </g>
    <g id="line2d_47">
     <path d="M 328.14 215.67625 
L 335.14 215.67625 
L 342.14 215.67625 
" style="fill: none; stroke: #4374b3; stroke-width: 1.5; stroke-linecap: square"/>
    </g>
    <g id="text_24">
     <!-- reph_ft -->
     <g transform="translate(347.74 218.12625) scale(0.07 -0.07)">
      <use xlink:href="#DejaVuSans-Bold-72"/>
      <use xlink:href="#DejaVuSans-Bold-65" x="49.316406"/>
      <use xlink:href="#DejaVuSans-Bold-70" x="117.138672"/>
      <use xlink:href="#DejaVuSans-Bold-68" x="188.720703"/>
      <use xlink:href="#DejaVuSans-Bold-5f" x="259.912109"/>
      <use xlink:href="#DejaVuSans-Bold-66" x="309.912109"/>
      <use xlink:href="#DejaVuSans-Bold-74" x="353.417969"/>
     </g>
    </g>
    <g id="line2d_48">
     <path d="M 328.14 226.145625 
L 335.14 226.145625 
L 342.14 226.145625 
" style="fill: none; stroke-dasharray: 9.6,2.4,1.5,2.4; stroke-dashoffset: 0; stroke: #008000; stroke-width: 1.5"/>
     <g>
      <use xlink:href="#m31803ffeb2" x="335.14" y="226.145625" style="fill: #008000; stroke: #008000; stroke-width: 2"/>
     </g>
    </g>
    <g id="text_25">
     <!-- best score -->
     <g transform="translate(347.74 228.595625) scale(0.07 -0.07)">
      <use xlink:href="#DejaVuSans-Bold-62"/>
      <use xlink:href="#DejaVuSans-Bold-65" x="71.582031"/>
      <use xlink:href="#DejaVuSans-Bold-73" x="139.404297"/>
      <use xlink:href="#DejaVuSans-Bold-74" x="198.925781"/>
      <use xlink:href="#DejaVuSans-Bold-20" x="246.728516"/>
      <use xlink:href="#DejaVuSans-Bold-73" x="281.542969"/>
      <use xlink:href="#DejaVuSans-Bold-63" x="341.064453"/>
      <use xlink:href="#DejaVuSans-Bold-6f" x="400.341797"/>
      <use xlink:href="#DejaVuSans-Bold-72" x="469.042969"/>
      <use xlink:href="#DejaVuSans-Bold-65" x="518.359375"/>
     </g>
    </g>
   </g>
  </g>
  <g id="text_26">
   <!-- CLIMATE SENTIMENT -->
   <g transform="translate(151.980859 14.118281) scale(0.11 -0.11)">
    <defs>
     <path id="DejaVuSans-Bold-43" d="M 4288 256 
Q 3956 84 3597 -3 
Q 3238 -91 2847 -91 
Q 1681 -91 1000 561 
Q 319 1213 319 2328 
Q 319 3447 1000 4098 
Q 1681 4750 2847 4750 
Q 3238 4750 3597 4662 
Q 3956 4575 4288 4403 
L 4288 3438 
Q 3953 3666 3628 3772 
Q 3303 3878 2944 3878 
Q 2300 3878 1931 3465 
Q 1563 3053 1563 2328 
Q 1563 1606 1931 1193 
Q 2300 781 2944 781 
Q 3303 781 3628 887 
Q 3953 994 4288 1222 
L 4288 256 
z
" transform="scale(0.015625)"/>
     <path id="DejaVuSans-Bold-4c" d="M 588 4666 
L 1791 4666 
L 1791 909 
L 3903 909 
L 3903 0 
L 588 0 
L 588 4666 
z
" transform="scale(0.015625)"/>
     <path id="DejaVuSans-Bold-49" d="M 588 4666 
L 1791 4666 
L 1791 0 
L 588 0 
L 588 4666 
z
" transform="scale(0.015625)"/>
     <path id="DejaVuSans-Bold-4d" d="M 588 4666 
L 2119 4666 
L 3181 2169 
L 4250 4666 
L 5778 4666 
L 5778 0 
L 4641 0 
L 4641 3413 
L 3566 897 
L 2803 897 
L 1728 3413 
L 1728 0 
L 588 0 
L 588 4666 
z
" transform="scale(0.015625)"/>
     <path id="DejaVuSans-Bold-41" d="M 3419 850 
L 1538 850 
L 1241 0 
L 31 0 
L 1759 4666 
L 3194 4666 
L 4922 0 
L 3713 0 
L 3419 850 
z
M 1838 1716 
L 3116 1716 
L 2478 3572 
L 1838 1716 
z
" transform="scale(0.015625)"/>
     <path id="DejaVuSans-Bold-54" d="M 31 4666 
L 4331 4666 
L 4331 3756 
L 2784 3756 
L 2784 0 
L 1581 0 
L 1581 3756 
L 31 3756 
L 31 4666 
z
" transform="scale(0.015625)"/>
     <path id="DejaVuSans-Bold-45" d="M 588 4666 
L 3834 4666 
L 3834 3756 
L 1791 3756 
L 1791 2888 
L 3713 2888 
L 3713 1978 
L 1791 1978 
L 1791 909 
L 3903 909 
L 3903 0 
L 588 0 
L 588 4666 
z
" transform="scale(0.015625)"/>
     <path id="DejaVuSans-Bold-4e" d="M 588 4666 
L 1931 4666 
L 3628 1466 
L 3628 4666 
L 4769 4666 
L 4769 0 
L 3425 0 
L 1728 3200 
L 1728 0 
L 588 0 
L 588 4666 
z
" transform="scale(0.015625)"/>
    </defs>
    <use xlink:href="#DejaVuSans-Bold-43"/>
    <use xlink:href="#DejaVuSans-Bold-4c" x="73.388672"/>
    <use xlink:href="#DejaVuSans-Bold-49" x="137.109375"/>
    <use xlink:href="#DejaVuSans-Bold-4d" x="174.316406"/>
    <use xlink:href="#DejaVuSans-Bold-41" x="273.828125"/>
    <use xlink:href="#DejaVuSans-Bold-54" x="343.470703"/>
    <use xlink:href="#DejaVuSans-Bold-45" x="411.683594"/>
    <use xlink:href="#DejaVuSans-Bold-20" x="479.994141"/>
    <use xlink:href="#DejaVuSans-Bold-53" x="514.808594"/>
    <use xlink:href="#DejaVuSans-Bold-45" x="586.830078"/>
    <use xlink:href="#DejaVuSans-Bold-4e" x="655.140625"/>
    <use xlink:href="#DejaVuSans-Bold-54" x="738.832031"/>
    <use xlink:href="#DejaVuSans-Bold-49" x="807.044922"/>
    <use xlink:href="#DejaVuSans-Bold-4d" x="844.251953"/>
    <use xlink:href="#DejaVuSans-Bold-45" x="943.763672"/>
    <use xlink:href="#DejaVuSans-Bold-4e" x="1012.074219"/>
    <use xlink:href="#DejaVuSans-Bold-54" x="1095.765625"/>
   </g>
  </g>
 </g>
 <defs>
  <clipPath id="p28a4d7678c">
   <rect x="54" y="34.56" width="267.84" height="100.8"/>
  </clipPath>
  <clipPath id="pda43432abb">
   <rect x="54" y="155.52" width="267.84" height="100.8"/>
  </clipPath>
 </defs>
</svg>
